<svg xmlns="http://www.w3.org/2000/svg" xmlns:xlink="http://www.w3.org/1999/xlink" width="110" zoomAndPan="magnify" viewBox="0 0 82.5 82.499998" height="110" preserveAspectRatio="xMidYMid meet" version="1.0"><defs><clipPath id="6106e7cadd"><path d="M 3.578125 3.828125 L 70.671875 3.828125 L 70.671875 78.375 L 3.578125 78.375 Z M 3.578125 3.828125 " clip-rule="nonzero"/></clipPath><clipPath id="6906f736ae"><path d="M 20.203125 66.242188 L 21.726562 66.242188 L 21.726562 67.765625 L 20.203125 67.765625 Z M 20.203125 66.242188 " clip-rule="nonzero"/></clipPath><clipPath id="224dd0e1df"><path d="M 20.964844 66.242188 C 20.542969 66.242188 20.203125 66.582031 20.203125 67.003906 C 20.203125 67.421875 20.542969 67.765625 20.964844 67.765625 C 21.382812 67.765625 21.726562 67.421875 21.726562 67.003906 C 21.726562 66.582031 21.382812 66.242188 20.964844 66.242188 Z M 20.964844 66.242188 " clip-rule="nonzero"/></clipPath></defs><g clip-path="url(#6106e7cadd)"><path fill="#000000" d="M 37.046875 3.828125 L 3.582031 26.136719 L 5.546875 29.042969 L 11.4375 25.117188 L 11.4375 78.375 L 62.734375 78.375 L 62.734375 68.164062 L 59.199219 68.164062 L 59.199219 74.921875 L 41.132812 74.921875 L 41.132812 70.363281 L 34.925781 70.363281 L 34.925781 65.964844 L 28.71875 65.964844 L 28.71875 61.566406 L 22.515625 61.566406 L 22.515625 57.167969 L 15.050781 57.167969 L 15.050781 50.804688 L 59.277344 50.804688 L 59.277344 57.636719 L 62.8125 57.636719 L 62.8125 25.195312 L 68.703125 29.125 L 70.667969 26.214844 Z M 40.503906 47.425781 L 33.589844 47.425781 L 33.589844 33.050781 L 40.503906 33.050781 Z M 59.121094 47.425781 L 44.039062 47.425781 L 44.039062 29.515625 L 30.054688 29.515625 L 30.054688 47.425781 L 14.972656 47.425781 L 14.972656 22.839844 L 37.046875 8.070312 L 59.121094 22.839844 Z M 59.121094 47.425781 " fill-opacity="1" fill-rule="nonzero"/></g><path fill="#000000" d="M 54.5625 57.167969 L 52.050781 54.652344 L 43.800781 62.902344 L 52.050781 71.226562 L 54.5625 68.714844 L 50.558594 64.707031 L 67.132812 64.707031 L 67.132812 61.171875 L 50.558594 61.171875 Z M 54.5625 57.167969 " fill-opacity="1" fill-rule="nonzero"/><g clip-path="url(#6906f736ae)"><g clip-path="url(#224dd0e1df)"><path fill="#000000" d="M 20.203125 66.242188 L 21.726562 66.242188 L 21.726562 67.765625 L 20.203125 67.765625 Z M 20.203125 66.242188 " fill-opacity="1" fill-rule="nonzero"/></g></g></svg>