<svg xmlns="http://www.w3.org/2000/svg" xmlns:xlink="http://www.w3.org/1999/xlink" width="110" zoomAndPan="magnify" viewBox="0 0 82.5 82.499998" height="110" preserveAspectRatio="xMidYMid meet" version="1.0"><defs><clipPath id="f2802a9bfa"><path d="M 49 58 L 71 58 L 71 73.800781 L 49 73.800781 Z M 49 58 " clip-rule="nonzero"/></clipPath><clipPath id="652c66e0b3"><path d="M 44 72 L 74.625 72 L 74.625 73.800781 L 44 73.800781 Z M 44 72 " clip-rule="nonzero"/></clipPath><clipPath id="e65275aa4e"><path d="M 19 54 L 31 54 L 31 73.800781 L 19 73.800781 Z M 19 54 " clip-rule="nonzero"/></clipPath><clipPath id="67408758f9"><path d="M 7.53125 38 L 42 38 L 42 54 L 7.53125 54 Z M 7.53125 38 " clip-rule="nonzero"/></clipPath><clipPath id="533711ca44"><path d="M 28 8.199219 L 52 8.199219 L 52 24 L 28 24 Z M 28 8.199219 " clip-rule="nonzero"/></clipPath><clipPath id="6be6d44b31"><path d="M 31.683594 50.585938 L 33.207031 50.585938 L 33.207031 52.109375 L 31.683594 52.109375 Z M 31.683594 50.585938 " clip-rule="nonzero"/></clipPath><clipPath id="c0d826b1c5"><path d="M 32.445312 50.585938 C 32.023438 50.585938 31.683594 50.925781 31.683594 51.347656 C 31.683594 51.769531 32.023438 52.109375 32.445312 52.109375 C 32.863281 52.109375 33.207031 51.769531 33.207031 51.347656 C 33.207031 50.925781 32.863281 50.585938 32.445312 50.585938 Z M 32.445312 50.585938 " clip-rule="nonzero"/></clipPath></defs><g clip-path="url(#f2802a9bfa)"><path fill="#000000" d="M 67.617188 73.800781 C 67.199219 73.800781 66.855469 73.460938 66.855469 73.039062 C 66.855469 72.621094 67.199219 72.28125 67.617188 72.28125 C 67.941406 72.28125 68.203125 72.160156 68.414062 71.921875 C 68.625 71.675781 68.707031 71.40625 68.667969 71.085938 L 67.003906 58.867188 C 66.945312 58.449219 67.238281 58.066406 67.65625 58.011719 C 68.074219 57.957031 68.457031 58.246094 68.515625 58.660156 L 70.175781 70.878906 C 70.28125 71.636719 70.066406 72.34375 69.5625 72.917969 C 69.058594 73.496094 68.386719 73.800781 67.617188 73.800781 Z M 51.769531 73.800781 C 51.003906 73.800781 50.332031 73.496094 49.828125 72.917969 C 49.320312 72.34375 49.109375 71.640625 49.210938 70.882812 L 50.875 58.660156 C 50.933594 58.246094 51.316406 57.957031 51.734375 58.011719 C 52.152344 58.066406 52.441406 58.449219 52.386719 58.867188 L 50.722656 71.085938 C 50.679688 71.40625 50.761719 71.679688 50.972656 71.921875 C 51.1875 72.164062 51.445312 72.28125 51.769531 72.28125 C 52.191406 72.28125 52.53125 72.621094 52.53125 73.042969 C 52.53125 73.460938 52.191406 73.800781 51.769531 73.800781 Z M 51.769531 73.800781 " fill-opacity="1" fill-rule="nonzero"/></g><path fill="#000000" d="M 69.21875 70.238281 L 50.171875 70.238281 C 49.75 70.238281 49.410156 69.898438 49.410156 69.480469 C 49.410156 69.058594 49.75 68.71875 50.171875 68.71875 L 69.21875 68.71875 C 69.640625 68.71875 69.980469 69.058594 69.980469 69.480469 C 69.980469 69.898438 69.640625 70.238281 69.21875 70.238281 Z M 69.21875 70.238281 " fill-opacity="1" fill-rule="nonzero"/><path fill="#000000" d="M 59.695312 63.085938 C 53.273438 63.085938 48.046875 57.878906 48.046875 51.480469 C 48.046875 51.0625 48.390625 50.722656 48.808594 50.722656 C 49.230469 50.722656 49.570312 51.0625 49.570312 51.480469 C 49.570312 57.042969 54.113281 61.566406 59.695312 61.566406 C 65.277344 61.566406 69.816406 57.042969 69.816406 51.480469 C 69.816406 51.0625 70.160156 50.722656 70.578125 50.722656 C 71 50.722656 71.339844 51.0625 71.339844 51.480469 C 71.339844 57.878906 66.117188 63.085938 59.695312 63.085938 Z M 59.695312 63.085938 " fill-opacity="1" fill-rule="nonzero"/><path fill="#000000" d="M 71.375 52.238281 L 48.015625 52.238281 C 46.679688 52.238281 45.59375 51.160156 45.59375 49.828125 C 45.59375 48.5 46.679688 47.417969 48.015625 47.417969 L 71.375 47.417969 C 72.710938 47.417969 73.796875 48.5 73.796875 49.828125 C 73.796875 51.160156 72.710938 52.238281 71.375 52.238281 Z M 48.015625 48.9375 C 47.519531 48.9375 47.117188 49.335938 47.117188 49.828125 C 47.117188 50.320312 47.519531 50.71875 48.015625 50.71875 L 71.375 50.71875 C 71.871094 50.71875 72.273438 50.320312 72.273438 49.828125 C 72.273438 49.335938 71.871094 48.9375 71.375 48.9375 Z M 48.015625 48.9375 " fill-opacity="1" fill-rule="nonzero"/><path fill="#000000" d="M 67.359375 48.9375 C 67.265625 48.9375 67.167969 48.917969 67.074219 48.882812 C 66.683594 48.722656 66.496094 48.28125 66.65625 47.894531 C 67.363281 46.15625 67.738281 44.171875 67.738281 42.15625 C 67.738281 35.828125 64.128906 30.679688 59.695312 30.679688 C 55.261719 30.679688 51.652344 35.828125 51.652344 42.15625 C 51.652344 44.171875 52.027344 46.15625 52.734375 47.894531 C 52.890625 48.28125 52.703125 48.722656 52.3125 48.882812 C 51.925781 49.039062 51.480469 48.851562 51.320312 48.464844 C 50.539062 46.546875 50.128906 44.367188 50.128906 42.15625 C 50.128906 34.992188 54.417969 29.160156 59.695312 29.160156 C 64.972656 29.160156 69.265625 34.988281 69.265625 42.15625 C 69.265625 44.367188 68.851562 46.546875 68.070312 48.464844 C 67.949219 48.757812 67.664062 48.9375 67.359375 48.9375 Z M 67.359375 48.9375 " fill-opacity="1" fill-rule="nonzero"/><path fill="#000000" d="M 71.375 48.9375 C 70.953125 48.9375 70.613281 48.597656 70.613281 48.175781 L 70.613281 31.15625 C 70.613281 29.179688 69 27.570312 67.015625 27.570312 L 52.371094 27.570312 C 50.390625 27.570312 48.777344 29.179688 48.777344 31.15625 L 48.777344 48.179688 C 48.777344 48.597656 48.433594 48.9375 48.015625 48.9375 C 47.59375 48.9375 47.25 48.597656 47.25 48.179688 L 47.25 31.15625 C 47.25 28.339844 49.550781 26.050781 52.371094 26.050781 L 67.015625 26.050781 C 69.839844 26.050781 72.136719 28.339844 72.136719 31.15625 L 72.136719 48.179688 C 72.136719 48.597656 71.796875 48.9375 71.375 48.9375 Z M 71.375 48.9375 " fill-opacity="1" fill-rule="nonzero"/><path fill="#000000" d="M 64.144531 66.660156 L 55.242188 66.660156 C 54.820312 66.660156 54.480469 66.320312 54.480469 65.902344 C 54.480469 65.484375 54.820312 65.144531 55.242188 65.144531 L 64.144531 65.144531 C 64.566406 65.144531 64.910156 65.484375 64.910156 65.902344 C 64.910156 66.320312 64.566406 66.660156 64.144531 66.660156 Z M 64.144531 66.660156 " fill-opacity="1" fill-rule="nonzero"/><path fill="#000000" d="M 62.488281 57.664062 L 56.898438 57.664062 C 56.480469 57.664062 56.136719 57.320312 56.136719 56.902344 C 56.136719 56.484375 56.480469 56.144531 56.898438 56.144531 L 62.488281 56.144531 C 62.910156 56.144531 63.25 56.484375 63.25 56.902344 C 63.25 57.320312 62.910156 57.664062 62.488281 57.664062 Z M 62.488281 57.664062 " fill-opacity="1" fill-rule="nonzero"/><g clip-path="url(#652c66e0b3)"><path fill="#000000" d="M 73.863281 73.800781 L 45.527344 73.800781 C 45.105469 73.800781 44.765625 73.460938 44.765625 73.039062 C 44.765625 72.621094 45.105469 72.28125 45.527344 72.28125 L 73.863281 72.28125 C 74.28125 72.28125 74.625 72.621094 74.625 73.039062 C 74.625 73.460938 74.28125 73.800781 73.863281 73.800781 Z M 73.863281 73.800781 " fill-opacity="1" fill-rule="nonzero"/></g><g clip-path="url(#e65275aa4e)"><path fill="#000000" d="M 29.4375 73.800781 L 19.808594 73.800781 C 19.386719 73.800781 19.046875 73.460938 19.046875 73.039062 L 19.046875 55.257812 C 19.046875 54.839844 19.386719 54.5 19.808594 54.5 C 20.226562 54.5 20.570312 54.839844 20.570312 55.257812 L 20.570312 72.28125 L 28.675781 72.28125 L 28.675781 55.1875 C 28.675781 54.769531 29.015625 54.429688 29.4375 54.429688 C 29.855469 54.429688 30.199219 54.769531 30.199219 55.1875 L 30.199219 73.039062 C 30.199219 73.460938 29.855469 73.800781 29.4375 73.800781 Z M 29.4375 73.800781 " fill-opacity="1" fill-rule="nonzero"/></g><path fill="#000000" d="M 24.4375 56.769531 C 21.878906 56.769531 19.367188 56.128906 16.96875 54.871094 C 16.425781 54.585938 16.023438 54.109375 15.84375 53.523438 C 15.664062 52.941406 15.71875 52.320312 16.003906 51.78125 C 16.210938 51.390625 16.519531 51.074219 16.898438 50.859375 C 17.265625 50.652344 17.730469 50.777344 17.941406 51.144531 C 18.148438 51.507812 18.019531 51.972656 17.65625 52.179688 C 17.527344 52.25 17.425781 52.359375 17.355469 52.488281 C 17.257812 52.671875 17.238281 52.878906 17.300781 53.074219 C 17.359375 53.269531 17.496094 53.433594 17.675781 53.527344 C 19.917969 54.703125 22.257812 55.28125 24.632812 55.25 C 26.863281 55.21875 29.183594 54.644531 31.535156 53.542969 C 31.722656 53.453125 31.863281 53.300781 31.933594 53.109375 C 32.003906 52.917969 31.996094 52.710938 31.90625 52.523438 C 31.839844 52.378906 31.730469 52.261719 31.589844 52.183594 C 31.222656 51.976562 31.09375 51.511719 31.300781 51.148438 C 31.507812 50.785156 31.972656 50.652344 32.339844 50.859375 C 32.757812 51.09375 33.085938 51.449219 33.289062 51.882812 C 33.546875 52.433594 33.574219 53.054688 33.363281 53.628906 C 33.15625 54.203125 32.734375 54.664062 32.179688 54.921875 C 29.632812 56.113281 27.097656 56.734375 24.652344 56.769531 C 24.582031 56.769531 24.507812 56.769531 24.4375 56.769531 Z M 24.4375 56.769531 " fill-opacity="1" fill-rule="nonzero"/><g clip-path="url(#67408758f9)"><path fill="#000000" d="M 24.621094 53.710938 C 15.199219 53.710938 7.535156 47.351562 7.535156 39.535156 C 7.535156 39.113281 7.875 38.773438 8.296875 38.773438 L 40.949219 38.773438 C 41.371094 38.773438 41.710938 39.113281 41.710938 39.535156 C 41.710938 47.351562 34.042969 53.710938 24.621094 53.710938 Z M 9.085938 40.292969 C 9.570312 46.921875 16.355469 52.191406 24.621094 52.191406 C 32.890625 52.191406 39.671875 46.921875 40.15625 40.292969 Z M 9.085938 40.292969 " fill-opacity="1" fill-rule="nonzero"/></g><path fill="#000000" d="M 27.132812 40.292969 C 26.714844 40.292969 26.371094 39.953125 26.371094 39.535156 L 26.371094 29.699219 C 26.371094 28.578125 25.929688 27.519531 25.132812 26.722656 C 24.332031 25.925781 23.269531 25.488281 22.144531 25.488281 C 21.023438 25.488281 19.960938 25.925781 19.160156 26.722656 C 18.527344 27.355469 18.121094 28.148438 17.976562 29.007812 L 18.980469 29.007812 C 19.113281 28.414062 19.414062 27.863281 19.859375 27.417969 C 20.472656 26.808594 21.285156 26.472656 22.144531 26.472656 C 23.007812 26.472656 23.820312 26.808594 24.429688 27.417969 C 25.046875 28.03125 25.382812 28.839844 25.382812 29.699219 L 25.382812 39.535156 C 25.382812 39.953125 25.042969 40.292969 24.621094 40.292969 C 24.199219 40.292969 23.859375 39.953125 23.859375 39.535156 L 23.859375 29.699219 C 23.859375 29.246094 23.679688 28.816406 23.351562 28.492188 C 23.027344 28.167969 22.597656 27.992188 22.144531 27.992188 C 21.691406 27.992188 21.261719 28.167969 20.9375 28.492188 C 20.609375 28.816406 20.429688 29.246094 20.429688 29.699219 C 20.429688 29.734375 20.429688 29.773438 20.429688 29.808594 C 20.40625 30.210938 20.070312 30.527344 19.667969 30.527344 L 17.160156 30.527344 C 16.753906 30.527344 16.421875 30.210938 16.398438 29.808594 C 16.398438 29.773438 16.394531 29.734375 16.394531 29.699219 C 16.394531 28.171875 16.996094 26.734375 18.082031 25.648438 C 19.171875 24.566406 20.617188 23.96875 22.144531 23.96875 C 23.679688 23.96875 25.121094 24.566406 26.207031 25.648438 C 27.296875 26.734375 27.894531 28.171875 27.894531 29.699219 L 27.894531 39.535156 C 27.894531 39.953125 27.554688 40.292969 27.132812 40.292969 Z M 27.132812 40.292969 " fill-opacity="1" fill-rule="nonzero"/><path fill="#000000" d="M 16.984375 40.292969 C 16.5625 40.292969 16.21875 39.953125 16.21875 39.535156 L 16.21875 35.710938 C 16.21875 35.292969 16.5625 34.953125 16.984375 34.953125 C 17.402344 34.953125 17.746094 35.292969 17.746094 35.710938 L 17.746094 39.535156 C 17.746094 39.953125 17.402344 40.292969 16.984375 40.292969 Z M 16.984375 40.292969 " fill-opacity="1" fill-rule="nonzero"/><path fill="#000000" d="M 18.898438 36.46875 L 15.0625 36.46875 C 14.640625 36.46875 14.300781 36.128906 14.300781 35.710938 C 14.300781 35.292969 14.640625 34.953125 15.0625 34.953125 L 18.898438 34.953125 C 19.320312 34.953125 19.664062 35.292969 19.664062 35.710938 C 19.664062 36.128906 19.324219 36.46875 18.898438 36.46875 Z M 18.898438 36.46875 " fill-opacity="1" fill-rule="nonzero"/><path fill="#000000" d="M 32.261719 40.292969 C 31.84375 40.292969 31.5 39.953125 31.5 39.535156 L 31.5 35.710938 C 31.5 35.292969 31.84375 34.953125 32.261719 34.953125 C 32.683594 34.953125 33.023438 35.292969 33.023438 35.710938 L 33.023438 39.535156 C 33.023438 39.953125 32.683594 40.292969 32.261719 40.292969 Z M 32.261719 40.292969 " fill-opacity="1" fill-rule="nonzero"/><path fill="#000000" d="M 34.179688 36.46875 L 30.34375 36.46875 C 29.921875 36.46875 29.582031 36.128906 29.582031 35.710938 C 29.582031 35.292969 29.921875 34.953125 30.34375 34.953125 L 34.179688 34.953125 C 34.601562 34.953125 34.941406 35.292969 34.941406 35.710938 C 34.941406 36.128906 34.601562 36.46875 34.179688 36.46875 Z M 34.179688 36.46875 " fill-opacity="1" fill-rule="nonzero"/><g clip-path="url(#533711ca44)"><path fill="#000000" d="M 50.808594 23.777344 L 29.121094 23.777344 C 28.703125 23.777344 28.359375 23.4375 28.359375 23.019531 L 28.359375 8.972656 C 28.359375 8.554688 28.703125 8.214844 29.121094 8.214844 L 50.808594 8.214844 C 51.230469 8.214844 51.570312 8.554688 51.570312 8.972656 L 51.570312 23.019531 C 51.570312 23.4375 51.230469 23.777344 50.808594 23.777344 Z M 29.882812 22.257812 L 50.046875 22.257812 L 50.046875 9.734375 L 29.882812 9.734375 Z M 29.882812 22.257812 " fill-opacity="1" fill-rule="nonzero"/></g><path fill="#000000" d="M 37.5 19.101562 C 37.371094 19.101562 37.238281 19.070312 37.121094 19 C 36.753906 18.792969 36.628906 18.328125 36.839844 17.964844 L 39.5625 13.269531 C 39.773438 12.90625 40.238281 12.78125 40.601562 12.992188 C 40.96875 13.199219 41.09375 13.664062 40.882812 14.027344 L 38.160156 18.722656 C 38.019531 18.964844 37.761719 19.101562 37.5 19.101562 Z M 37.5 19.101562 " fill-opacity="1" fill-rule="nonzero"/><path fill="#000000" d="M 41.574219 19.101562 C 41.441406 19.101562 41.3125 19.070312 41.191406 19 C 40.828125 18.792969 40.703125 18.328125 40.914062 17.964844 L 41.769531 16.488281 C 41.976562 16.125 42.445312 16 42.808594 16.210938 C 43.171875 16.417969 43.296875 16.882812 43.089844 17.246094 L 42.234375 18.722656 C 42.09375 18.964844 41.835938 19.101562 41.574219 19.101562 Z M 41.574219 19.101562 " fill-opacity="1" fill-rule="nonzero"/><g clip-path="url(#6be6d44b31)"><g clip-path="url(#c0d826b1c5)"><path fill="#000000" d="M 31.683594 50.585938 L 33.207031 50.585938 L 33.207031 52.109375 L 31.683594 52.109375 Z M 31.683594 50.585938 " fill-opacity="1" fill-rule="nonzero"/></g></g></svg>