<svg xmlns="http://www.w3.org/2000/svg" xmlns:xlink="http://www.w3.org/1999/xlink" width="110" zoomAndPan="magnify" viewBox="0 0 82.5 82.499998" height="110" preserveAspectRatio="xMidYMid meet" version="1.0"><defs><clipPath id="d42827f5bc"><path d="M 4.753906 2.234375 L 77.066406 2.234375 L 77.066406 79.761719 L 4.753906 79.761719 Z M 4.753906 2.234375 " clip-rule="nonzero"/></clipPath><clipPath id="75cbd9f440"><path d="M 26.167969 59.085938 L 27.6875 59.085938 L 27.6875 60.609375 L 26.167969 60.609375 Z M 26.167969 59.085938 " clip-rule="nonzero"/></clipPath><clipPath id="d730909b1a"><path d="M 26.929688 59.085938 C 26.507812 59.085938 26.167969 59.425781 26.167969 59.847656 C 26.167969 60.265625 26.507812 60.609375 26.929688 60.609375 C 27.347656 60.609375 27.6875 60.265625 27.6875 59.847656 C 27.6875 59.425781 27.347656 59.085938 26.929688 59.085938 Z M 26.929688 59.085938 " clip-rule="nonzero"/></clipPath></defs><g clip-path="url(#d42827f5bc)"><path fill="#000000" d="M 75.453125 76.542969 L 69.023438 76.542969 L 69.023438 71.710938 L 73.84375 71.710938 C 74.730469 71.710938 75.453125 70.988281 75.453125 70.101562 L 75.453125 26.617188 C 75.453125 26.050781 75.15625 25.527344 74.671875 25.234375 C 66.15625 20.113281 66.542969 20.316406 66.242188 20.234375 C 66.179688 20.214844 66.117188 20.203125 66.054688 20.191406 C 66.035156 20.191406 66.011719 20.1875 65.992188 20.1875 C 65.851562 20.171875 65.714844 20.171875 65.589844 20.191406 C 65.417969 20.214844 60.289062 21.074219 56.171875 21.761719 L 56.171875 10.511719 C 56.171875 10.023438 55.949219 9.558594 55.570312 9.253906 C 46.8125 2.234375 47.507812 2.769531 47.292969 2.652344 C 47.03125 2.511719 46.746094 2.449219 46.472656 2.460938 C 46.425781 2.460938 46.378906 2.46875 46.332031 2.472656 C 46.3125 2.476562 46.214844 2.480469 46.054688 2.53125 C 45.90625 2.578125 38.941406 5.769531 26.585938 11.40625 C 26.015625 11.667969 25.644531 12.242188 25.644531 12.871094 L 25.644531 24.292969 C 14.402344 20.066406 14.929688 20.253906 14.730469 20.210938 C 14.527344 20.167969 14.304688 20.164062 14.089844 20.207031 C 14.070312 20.210938 14.046875 20.214844 14.027344 20.21875 C 13.890625 20.25 13.773438 20.292969 13.636719 20.367188 C 13.617188 20.378906 13.597656 20.390625 13.578125 20.402344 C 13.546875 20.421875 13.515625 20.4375 13.484375 20.460938 C 13.476562 20.464844 13.46875 20.472656 13.460938 20.480469 C 13.34375 20.566406 8.609375 24.125 7.007812 25.328125 C 6.605469 25.632812 6.367188 26.109375 6.367188 26.617188 L 6.367188 70.101562 C 6.367188 70.988281 7.085938 71.710938 7.972656 71.710938 L 9.578125 71.710938 L 9.578125 76.542969 L 6.367188 76.542969 C 5.480469 76.542969 4.761719 77.261719 4.761719 78.152344 C 4.761719 79.042969 5.480469 79.761719 6.367188 79.761719 C 7.296875 79.761719 74.503906 79.761719 75.453125 79.761719 C 76.339844 79.761719 77.058594 79.042969 77.058594 78.152344 C 77.058594 77.261719 76.339844 76.542969 75.453125 76.542969 Z M 65.8125 76.542969 L 60.992188 76.542969 L 60.992188 71.710938 L 65.8125 71.710938 Z M 72.238281 68.488281 L 67.417969 68.488281 L 67.417969 24.628906 L 72.238281 27.527344 Z M 64.207031 68.488281 L 60.992188 68.488281 L 60.992188 62.046875 C 60.992188 61.15625 60.273438 60.4375 59.386719 60.4375 L 48.140625 60.4375 L 48.140625 26.371094 L 64.207031 23.683594 Z M 52.960938 22.300781 L 48.140625 23.105469 L 48.140625 7.417969 L 52.960938 11.285156 Z M 28.859375 13.910156 L 44.925781 6.574219 C 44.925781 8.695312 44.925781 57.902344 44.925781 60.4375 L 33.679688 60.4375 C 32.792969 60.4375 32.074219 61.15625 32.074219 62.046875 L 32.074219 68.488281 L 28.859375 68.488281 C 28.859375 65.878906 28.859375 16.488281 28.859375 13.910156 Z M 25.644531 68.488281 L 16.007812 68.488281 L 16.007812 24.109375 L 25.644531 27.730469 Z M 9.578125 27.421875 L 12.792969 25.003906 L 12.792969 68.488281 C 11.667969 68.488281 10.703125 68.488281 9.578125 68.488281 Z M 12.792969 71.710938 C 16.695312 71.710938 28.160156 71.710938 32.074219 71.710938 L 32.074219 76.542969 L 12.792969 76.542969 Z M 35.285156 76.542969 C 35.285156 74.984375 35.285156 65.226562 35.285156 63.65625 C 38.007812 63.65625 55.039062 63.65625 57.777344 63.65625 C 57.777344 65.214844 57.777344 74.972656 57.777344 76.542969 Z M 35.285156 76.542969 " fill-opacity="1" fill-rule="nonzero"/></g><path fill="#000000" d="M 32.074219 15.34375 L 35.285156 15.34375 L 35.285156 21.785156 L 32.074219 21.785156 Z M 32.074219 15.34375 " fill-opacity="1" fill-rule="nonzero"/><path fill="#000000" d="M 36.894531 15.34375 L 40.105469 15.34375 L 40.105469 21.785156 L 36.894531 21.785156 Z M 36.894531 15.34375 " fill-opacity="1" fill-rule="nonzero"/><path fill="#000000" d="M 32.074219 23.394531 L 35.285156 23.394531 L 35.285156 29.835938 L 32.074219 29.835938 Z M 32.074219 23.394531 " fill-opacity="1" fill-rule="nonzero"/><path fill="#000000" d="M 36.894531 23.394531 L 40.105469 23.394531 L 40.105469 29.835938 L 36.894531 29.835938 Z M 36.894531 23.394531 " fill-opacity="1" fill-rule="nonzero"/><path fill="#000000" d="M 32.074219 31.449219 L 35.285156 31.449219 L 35.285156 37.890625 L 32.074219 37.890625 Z M 32.074219 31.449219 " fill-opacity="1" fill-rule="nonzero"/><path fill="#000000" d="M 36.894531 31.449219 L 40.105469 31.449219 L 40.105469 37.890625 L 36.894531 37.890625 Z M 36.894531 31.449219 " fill-opacity="1" fill-rule="nonzero"/><path fill="#000000" d="M 32.074219 39.5 L 35.285156 39.5 L 35.285156 45.941406 L 32.074219 45.941406 Z M 32.074219 39.5 " fill-opacity="1" fill-rule="nonzero"/><path fill="#000000" d="M 19.21875 31.449219 L 22.433594 31.449219 L 22.433594 37.890625 L 19.21875 37.890625 Z M 19.21875 31.449219 " fill-opacity="1" fill-rule="nonzero"/><path fill="#000000" d="M 19.21875 39.5 L 22.433594 39.5 L 22.433594 45.941406 L 19.21875 45.941406 Z M 19.21875 39.5 " fill-opacity="1" fill-rule="nonzero"/><path fill="#000000" d="M 19.21875 47.550781 L 22.433594 47.550781 L 22.433594 53.996094 L 19.21875 53.996094 Z M 19.21875 47.550781 " fill-opacity="1" fill-rule="nonzero"/><path fill="#000000" d="M 19.21875 55.605469 L 22.433594 55.605469 L 22.433594 62.046875 L 19.21875 62.046875 Z M 19.21875 55.605469 " fill-opacity="1" fill-rule="nonzero"/><path fill="#000000" d="M 36.894531 39.5 L 40.105469 39.5 L 40.105469 45.941406 L 36.894531 45.941406 Z M 36.894531 39.5 " fill-opacity="1" fill-rule="nonzero"/><path fill="#000000" d="M 49.746094 28.226562 L 52.960938 28.226562 L 52.960938 33.058594 L 49.746094 33.058594 Z M 49.746094 28.226562 " fill-opacity="1" fill-rule="nonzero"/><path fill="#000000" d="M 54.566406 28.226562 L 57.777344 28.226562 L 57.777344 33.058594 L 54.566406 33.058594 Z M 54.566406 28.226562 " fill-opacity="1" fill-rule="nonzero"/><path fill="#000000" d="M 59.386719 28.226562 L 62.597656 28.226562 L 62.597656 33.058594 L 59.386719 33.058594 Z M 59.386719 28.226562 " fill-opacity="1" fill-rule="nonzero"/><path fill="#000000" d="M 49.746094 34.667969 L 52.960938 34.667969 L 52.960938 39.5 L 49.746094 39.5 Z M 49.746094 34.667969 " fill-opacity="1" fill-rule="nonzero"/><path fill="#000000" d="M 54.566406 34.667969 L 57.777344 34.667969 L 57.777344 39.5 L 54.566406 39.5 Z M 54.566406 34.667969 " fill-opacity="1" fill-rule="nonzero"/><path fill="#000000" d="M 59.386719 34.667969 L 62.597656 34.667969 L 62.597656 39.5 L 59.386719 39.5 Z M 59.386719 34.667969 " fill-opacity="1" fill-rule="nonzero"/><path fill="#000000" d="M 49.746094 41.109375 L 52.960938 41.109375 L 52.960938 45.941406 L 49.746094 45.941406 Z M 49.746094 41.109375 " fill-opacity="1" fill-rule="nonzero"/><path fill="#000000" d="M 54.566406 41.109375 L 57.777344 41.109375 L 57.777344 45.941406 L 54.566406 45.941406 Z M 54.566406 41.109375 " fill-opacity="1" fill-rule="nonzero"/><path fill="#000000" d="M 59.386719 41.109375 L 62.597656 41.109375 L 62.597656 45.941406 L 59.386719 45.941406 Z M 59.386719 41.109375 " fill-opacity="1" fill-rule="nonzero"/><path fill="#000000" d="M 49.746094 47.550781 L 52.960938 47.550781 L 52.960938 52.382812 L 49.746094 52.382812 Z M 49.746094 47.550781 " fill-opacity="1" fill-rule="nonzero"/><path fill="#000000" d="M 54.566406 47.550781 L 57.777344 47.550781 L 57.777344 52.382812 L 54.566406 52.382812 Z M 54.566406 47.550781 " fill-opacity="1" fill-rule="nonzero"/><path fill="#000000" d="M 49.746094 53.996094 L 52.960938 53.996094 L 52.960938 58.828125 L 49.746094 58.828125 Z M 49.746094 53.996094 " fill-opacity="1" fill-rule="nonzero"/><path fill="#000000" d="M 32.074219 47.550781 L 35.285156 47.550781 L 35.285156 53.996094 L 32.074219 53.996094 Z M 32.074219 47.550781 " fill-opacity="1" fill-rule="nonzero"/><path fill="#000000" d="M 38.5 65.269531 L 54.566406 65.269531 L 54.566406 68.488281 L 38.5 68.488281 Z M 38.5 65.269531 " fill-opacity="1" fill-rule="nonzero"/><path fill="#000000" d="M 38.5 70.101562 L 54.566406 70.101562 L 54.566406 73.320312 L 38.5 73.320312 Z M 38.5 70.101562 " fill-opacity="1" fill-rule="nonzero"/><g clip-path="url(#75cbd9f440)"><g clip-path="url(#d730909b1a)"><path fill="#000000" d="M 26.167969 59.085938 L 27.6875 59.085938 L 27.6875 60.609375 L 26.167969 60.609375 Z M 26.167969 59.085938 " fill-opacity="1" fill-rule="nonzero"/></g></g></svg>