<svg xmlns="http://www.w3.org/2000/svg" xmlns:xlink="http://www.w3.org/1999/xlink" width="110" zoomAndPan="magnify" viewBox="0 0 82.5 82.499998" height="110" preserveAspectRatio="xMidYMid meet" version="1.0"><defs><clipPath id="08fd62c5dc"><path d="M 4.976562 15.828125 L 77.289062 15.828125 L 77.289062 66.523438 L 4.976562 66.523438 Z M 4.976562 15.828125 " clip-rule="nonzero"/></clipPath><clipPath id="8c416064f3"><path d="M 29.59375 41 L 30.953125 41 L 30.953125 42.359375 L 29.59375 42.359375 Z M 29.59375 41 " clip-rule="nonzero"/></clipPath><clipPath id="d6007453bd"><path d="M 30.273438 41 C 29.898438 41 29.59375 41.304688 29.59375 41.679688 C 29.59375 42.054688 29.898438 42.359375 30.273438 42.359375 C 30.648438 42.359375 30.953125 42.054688 30.953125 41.679688 C 30.953125 41.304688 30.648438 41 30.273438 41 Z M 30.273438 41 " clip-rule="nonzero"/></clipPath></defs><g clip-path="url(#08fd62c5dc)"><path fill="#000000" d="M 12.476562 48.847656 L 6.011719 48.847656 C 5.445312 48.847656 4.988281 48.386719 4.988281 47.820312 L 4.988281 16.851562 C 4.988281 16.285156 5.445312 15.824219 6.011719 15.824219 L 15.492188 15.824219 C 16.058594 15.824219 16.519531 16.285156 16.519531 16.851562 L 16.519531 19.457031 L 29.949219 19.457031 L 29.949219 18.121094 C 29.949219 17.554688 30.410156 17.09375 30.972656 17.09375 C 31.539062 17.09375 32 17.554688 32 18.121094 L 32 40.582031 L 50.410156 40.582031 L 50.410156 17.632812 C 50.410156 17.066406 50.867188 16.605469 51.433594 16.605469 C 52 16.605469 52.457031 17.066406 52.457031 17.632812 L 52.457031 19.457031 L 65.746094 19.457031 L 65.746094 16.851562 C 65.746094 16.285156 66.207031 15.824219 66.769531 15.824219 L 76.253906 15.824219 C 76.820312 15.824219 77.277344 16.285156 77.277344 16.851562 L 77.277344 47.820312 C 77.277344 48.386719 76.820312 48.847656 76.253906 48.847656 L 69.785156 48.847656 L 69.785156 65.484375 C 69.785156 66.050781 69.328125 66.511719 68.761719 66.511719 L 58.664062 66.511719 C 58.101562 66.511719 57.640625 66.050781 57.640625 65.484375 L 57.640625 48.847656 L 55.128906 48.847656 L 55.128906 51.261719 C 55.128906 51.828125 54.671875 52.289062 54.105469 52.289062 L 53.394531 52.289062 L 53.394531 55.679688 L 54.105469 55.679688 C 54.671875 55.679688 55.128906 56.136719 55.128906 56.707031 L 55.128906 60.039062 C 55.128906 60.605469 54.671875 61.066406 54.105469 61.066406 L 53.394531 61.066406 L 53.394531 65.484375 C 53.394531 66.050781 52.933594 66.511719 52.367188 66.511719 L 29.894531 66.511719 C 29.328125 66.511719 28.871094 66.050781 28.871094 65.484375 L 28.871094 61.066406 L 28.160156 61.066406 C 27.59375 61.066406 27.132812 60.605469 27.132812 60.039062 L 27.132812 56.707031 C 27.132812 56.136719 27.59375 55.679688 28.160156 55.679688 L 28.871094 55.679688 L 28.871094 52.289062 L 28.160156 52.289062 C 27.59375 52.289062 27.132812 51.828125 27.132812 51.261719 L 27.132812 48.847656 L 24.625 48.847656 L 24.625 65.484375 C 24.625 66.050781 24.164062 66.511719 23.597656 66.511719 L 13.503906 66.511719 C 12.9375 66.511719 12.476562 66.050781 12.476562 65.484375 Z M 16.519531 21.515625 L 16.519531 40.582031 L 19.945312 40.582031 L 19.945312 21.515625 Z M 21.992188 40.582031 L 24.988281 40.582031 L 24.988281 21.515625 L 21.992188 21.515625 Z M 27.035156 40.582031 L 29.949219 40.582031 L 29.949219 21.515625 L 27.035156 21.515625 Z M 66.769531 42.640625 L 15.492188 42.640625 C 14.925781 42.640625 14.46875 42.179688 14.46875 41.613281 L 14.46875 17.878906 L 7.035156 17.878906 C 7.035156 17.878906 7.035156 46.792969 7.035156 46.792969 L 75.230469 46.792969 L 75.230469 17.878906 L 67.796875 17.878906 L 67.796875 41.613281 C 67.796875 42.179688 67.335938 42.640625 66.769531 42.640625 Z M 52.457031 40.582031 L 55.371094 40.582031 L 55.371094 21.515625 L 52.457031 21.515625 Z M 57.417969 40.582031 L 60.414062 40.582031 L 60.414062 21.515625 L 57.417969 21.515625 Z M 62.464844 40.582031 L 65.746094 40.582031 L 65.746094 21.515625 L 62.464844 21.515625 Z M 67.738281 48.847656 L 59.691406 48.847656 L 59.691406 64.457031 C 59.691406 64.457031 67.738281 64.457031 67.738281 64.457031 Z M 53.082031 48.847656 L 29.183594 48.847656 L 29.183594 50.234375 C 29.183594 50.234375 53.082031 50.234375 53.082031 50.234375 Z M 22.574219 48.847656 L 14.527344 48.847656 L 14.527344 64.457031 C 14.527344 64.457031 22.574219 64.457031 22.574219 64.457031 Z M 51.34375 52.289062 L 30.921875 52.289062 L 30.921875 55.679688 L 51.34375 55.679688 Z M 51.34375 61.066406 L 30.921875 61.066406 C 30.921875 62.371094 30.921875 64.457031 30.921875 64.457031 C 30.921875 64.457031 51.34375 64.457031 51.34375 64.457031 Z M 53.082031 57.734375 L 29.183594 57.734375 L 29.183594 59.011719 L 53.082031 59.011719 Z M 53.082031 57.734375 " fill-opacity="1" fill-rule="evenodd"/></g><g clip-path="url(#8c416064f3)"><g clip-path="url(#d6007453bd)"><path fill="#000000" d="M 29.59375 41 L 30.953125 41 L 30.953125 42.359375 L 29.59375 42.359375 Z M 29.59375 41 " fill-opacity="1" fill-rule="nonzero"/></g></g></svg>