<svg xmlns="http://www.w3.org/2000/svg" xmlns:xlink="http://www.w3.org/1999/xlink" width="110" zoomAndPan="magnify" viewBox="0 0 82.5 82.499998" height="110" preserveAspectRatio="xMidYMid meet" version="1.0"><defs><clipPath id="333f8bd96f"><path d="M 29.296875 62.515625 L 30.820312 62.515625 L 30.820312 64.035156 L 29.296875 64.035156 Z M 29.296875 62.515625 " clip-rule="nonzero"/></clipPath><clipPath id="538c8ce598"><path d="M 30.058594 62.515625 C 29.636719 62.515625 29.296875 62.855469 29.296875 63.277344 C 29.296875 63.695312 29.636719 64.035156 30.058594 64.035156 C 30.480469 64.035156 30.820312 63.695312 30.820312 63.277344 C 30.820312 62.855469 30.480469 62.515625 30.058594 62.515625 Z M 30.058594 62.515625 " clip-rule="nonzero"/></clipPath><clipPath id="036c33a929"><path d="M 20.050781 4.199219 L 64.03125 4.199219 L 64.03125 78 L 20.050781 78 Z M 20.050781 4.199219 " clip-rule="nonzero"/></clipPath></defs><g clip-path="url(#333f8bd96f)"><g clip-path="url(#538c8ce598)"><path fill="#000000" d="M 29.296875 62.515625 L 30.820312 62.515625 L 30.820312 64.035156 L 29.296875 64.035156 Z M 29.296875 62.515625 " fill-opacity="1" fill-rule="nonzero"/></g></g><g clip-path="url(#036c33a929)"><path fill="#000000" d="M 44.515625 4.203125 L 21.058594 11.582031 C 20.472656 11.875 20.050781 12.46875 20.050781 13.058594 L 20.050781 70.617188 C 20.050781 71.355469 20.507812 71.945312 21.242188 72.09375 L 44.699219 77.996094 L 44.972656 77.996094 C 45.265625 77.996094 45.550781 77.871094 45.84375 77.722656 C 46.136719 77.425781 46.4375 76.964844 46.4375 76.523438 L 46.4375 5.679688 C 46.4375 5.234375 46.136719 4.773438 45.84375 4.480469 C 45.402344 4.183594 44.957031 4.203125 44.515625 4.203125 Z M 49.371094 10.105469 L 49.371094 13.058594 L 61.101562 13.058594 L 61.101562 69.140625 L 49.371094 69.140625 L 49.371094 72.09375 L 62.566406 72.09375 C 63.375 72.09375 64.03125 71.429688 64.03125 70.617188 L 64.03125 11.582031 C 64.03125 10.769531 63.375 10.105469 62.566406 10.105469 Z M 40.574219 39.625 C 41.457031 39.625 42.039062 40.65625 42.039062 41.839844 C 42.039062 43.019531 41.457031 44.050781 40.574219 44.050781 C 39.691406 44.050781 39.109375 43.019531 39.109375 41.839844 C 39.109375 40.65625 39.691406 39.625 40.574219 39.625 Z M 40.574219 39.625 " fill-opacity="1" fill-rule="nonzero"/></g></svg>