<svg xmlns="http://www.w3.org/2000/svg" xmlns:xlink="http://www.w3.org/1999/xlink" width="110" zoomAndPan="magnify" viewBox="0 0 82.5 82.499998" height="110" preserveAspectRatio="xMidYMid meet" version="1.0"><defs><clipPath id="9c1258814e"><path d="M 5.695312 2.660156 L 78.007812 2.660156 L 78.007812 78.699219 L 5.695312 78.699219 Z M 5.695312 2.660156 " clip-rule="nonzero"/></clipPath><clipPath id="33c23acea5"><path d="M 24.378906 55.804688 L 25.898438 55.804688 L 25.898438 57.328125 L 24.378906 57.328125 Z M 24.378906 55.804688 " clip-rule="nonzero"/></clipPath><clipPath id="8e8594ce9b"><path d="M 25.140625 55.804688 C 24.71875 55.804688 24.378906 56.144531 24.378906 56.566406 C 24.378906 56.988281 24.71875 57.328125 25.140625 57.328125 C 25.558594 57.328125 25.898438 56.988281 25.898438 56.566406 C 25.898438 56.144531 25.558594 55.804688 25.140625 55.804688 Z M 25.140625 55.804688 " clip-rule="nonzero"/></clipPath></defs><g clip-path="url(#9c1258814e)"><path fill="#000000" d="M 13.820312 53.425781 C 14.371094 52.96875 14.867188 52.410156 15.273438 51.769531 C 15.671875 52.410156 16.164062 52.972656 16.71875 53.425781 C 16.164062 53.882812 15.671875 54.445312 15.273438 55.082031 C 14.867188 54.445312 14.371094 53.882812 13.820312 53.425781 Z M 16.40625 58.585938 C 16.667969 56.585938 17.890625 54.960938 19.449219 54.539062 C 20.582031 54.234375 20.582031 52.617188 19.449219 52.316406 C 17.890625 51.894531 16.667969 50.269531 16.40625 48.269531 C 16.242188 46.933594 14.304688 46.9375 14.128906 48.269531 C 13.867188 50.269531 12.644531 51.894531 11.085938 52.316406 C 9.953125 52.617188 9.953125 54.238281 11.085938 54.539062 C 12.644531 54.960938 13.867188 56.585938 14.128906 58.585938 C 14.308594 59.929688 16.25 59.90625 16.40625 58.585938 Z M 20.554688 70.722656 C 19.957031 69.625 19.140625 68.691406 18.199219 67.996094 C 19.140625 67.300781 19.957031 66.367188 20.554688 65.269531 C 21.167969 66.367188 21.972656 67.300781 22.921875 67.996094 C 21.972656 68.691406 21.167969 69.625 20.554688 70.722656 Z M 25.800781 66.882812 C 23.695312 66.3125 22.050781 64.136719 21.699219 61.464844 C 21.535156 60.136719 19.585938 60.128906 19.421875 61.464844 C 19.074219 64.136719 17.425781 66.3125 15.320312 66.882812 C 14.191406 67.1875 14.1875 68.804688 15.320312 69.109375 C 17.425781 69.675781 19.074219 71.851562 19.421875 74.527344 C 19.585938 75.863281 21.535156 75.855469 21.699219 74.527344 C 22.050781 71.851562 23.6875 69.675781 25.800781 69.109375 C 26.9375 68.804688 26.929688 67.183594 25.800781 66.882812 Z M 40.875 41.554688 C 42.492188 40.507812 43.839844 38.921875 44.753906 37.019531 C 45.652344 38.921875 47 40.507812 48.628906 41.554688 C 47 42.605469 45.652344 44.1875 44.753906 46.09375 C 43.839844 44.1875 42.492188 42.605469 40.875 41.554688 Z M 44.753906 51.300781 C 45.335938 51.300781 45.820312 50.871094 45.886719 50.296875 C 46.371094 46.539062 48.707031 43.472656 51.703125 42.667969 C 52.832031 42.363281 52.835938 40.746094 51.703125 40.441406 C 48.707031 39.636719 46.371094 36.574219 45.886719 32.8125 C 45.722656 31.484375 43.785156 31.492188 43.609375 32.8125 C 43.125 36.574219 40.789062 39.636719 37.792969 40.441406 C 36.660156 40.75 36.664062 42.363281 37.792969 42.667969 C 40.789062 43.472656 43.125 46.539062 43.609375 50.296875 C 43.6875 50.871094 44.171875 51.300781 44.753906 51.300781 Z M 34.167969 54.335938 C 33.664062 53.496094 33.03125 52.769531 32.304688 52.203125 C 33.03125 51.640625 33.664062 50.914062 34.167969 50.074219 C 34.660156 50.914062 35.292969 51.640625 36.019531 52.203125 C 35.292969 52.769531 34.660156 53.496094 34.167969 54.335938 Z M 38.820312 51.089844 C 39.949219 51.394531 39.953125 53.011719 38.820312 53.316406 C 37.015625 53.804688 35.601562 55.675781 35.3125 57.980469 C 35.234375 58.558594 34.738281 58.988281 34.167969 58.988281 C 33.585938 58.988281 33.101562 58.558594 33.023438 57.980469 C 32.722656 55.675781 31.316406 53.804688 29.503906 53.316406 C 28.371094 53.015625 28.371094 51.394531 29.503906 51.089844 C 31.316406 50.605469 32.722656 48.730469 33.023438 46.429688 C 33.101562 45.855469 33.585938 45.425781 34.167969 45.425781 C 34.738281 45.425781 35.234375 45.855469 35.3125 46.429688 C 35.601562 48.730469 37.015625 50.605469 38.820312 51.089844 Z M 78.011719 35.363281 C 78.011719 36 77.488281 36.515625 76.859375 36.515625 L 70.335938 36.515625 C 69.695312 36.515625 69.183594 36 69.183594 35.363281 C 69.183594 34.722656 69.695312 34.210938 70.335938 34.210938 L 76.859375 34.210938 C 77.488281 34.210938 78.011719 34.722656 78.011719 35.363281 Z M 61.144531 17.980469 C 60.71875 17.507812 60.757812 16.777344 61.230469 16.351562 L 65.835938 12.195312 C 66.3125 11.769531 67.039062 11.804688 67.464844 12.28125 C 67.890625 12.753906 67.851562 13.480469 67.378906 13.90625 L 62.765625 18.066406 C 62.300781 18.492188 61.558594 18.449219 61.144531 17.980469 Z M 51.363281 11.890625 L 53.339844 7.585938 C 53.601562 7.007812 54.292969 6.753906 54.863281 7.019531 C 55.445312 7.285156 55.695312 7.96875 55.433594 8.546875 L 53.457031 12.855469 C 53.1875 13.441406 52.492188 13.683594 51.925781 13.421875 C 51.355469 13.152344 51.101562 12.46875 51.363281 11.890625 Z M 40.71875 9.691406 L 40.71875 3.800781 C 40.71875 3.171875 41.234375 2.65625 41.863281 2.65625 C 42.503906 2.65625 43.015625 3.171875 43.015625 3.800781 L 43.015625 9.691406 C 43.015625 10.324219 42.503906 10.839844 41.863281 10.839844 C 41.234375 10.839844 40.71875 10.324219 40.71875 9.691406 Z M 13.382812 36.515625 L 6.859375 36.515625 C 6.226562 36.515625 5.707031 36 5.707031 35.363281 C 5.707031 34.722656 6.230469 34.210938 6.859375 34.210938 L 13.382812 34.210938 C 14.023438 34.210938 14.535156 34.722656 14.535156 35.363281 C 14.535156 35.996094 14.023438 36.515625 13.382812 36.515625 Z M 16.261719 12.273438 C 16.6875 11.800781 17.414062 11.761719 17.878906 12.1875 L 22.503906 16.351562 C 23.269531 17.046875 22.800781 18.359375 21.730469 18.359375 C 21.457031 18.359375 21.1875 18.265625 20.964844 18.066406 L 16.347656 13.902344 C 15.875 13.476562 15.835938 12.746094 16.261719 12.273438 Z M 28.261719 8.5625 C 28 7.984375 28.253906 7.300781 28.824219 7.03125 C 29.40625 6.765625 30.085938 7.019531 30.355469 7.597656 L 32.335938 11.902344 C 32.585938 12.449219 32.3125 12.972656 32.277344 12.972656 C 32.277344 13.042969 32.023438 13.28125 31.917969 13.351562 C 31.917969 13.351562 31.917969 13.351562 31.917969 13.355469 L 31.90625 13.355469 L 31.90625 13.359375 L 31.703125 13.457031 L 31.703125 13.460938 C 31.140625 13.671875 30.507812 13.425781 30.25 12.867188 Z M 10.511719 23.671875 C 10.738281 23.074219 11.394531 22.773438 11.996094 22.996094 L 16.765625 24.773438 L 17.039062 24.914062 C 17.039062 24.914062 17.039062 24.914062 17.039062 24.917969 C 17.457031 25.214844 17.628906 25.75 17.445312 26.257812 C 17.230469 26.84375 16.558594 27.160156 15.972656 26.933594 L 11.191406 25.152344 C 10.589844 24.929688 10.289062 24.269531 10.511719 23.671875 Z M 66.953125 24.75 L 71.722656 22.960938 C 72.324219 22.742188 72.980469 23.042969 73.203125 23.640625 C 73.425781 24.234375 73.128906 24.898438 72.527344 25.121094 L 67.757812 26.90625 C 67.167969 27.128906 66.5 26.839844 66.273438 26.230469 C 66.050781 25.636719 66.351562 24.972656 66.953125 24.75 Z M 58.671875 68.257812 C 55.921875 68.257812 53.679688 66.015625 53.679688 63.257812 C 53.679688 60.5 55.921875 58.253906 58.671875 58.253906 C 61.425781 58.253906 63.664062 60.5 63.664062 63.257812 C 63.664062 66.015625 61.425781 68.257812 58.671875 68.257812 Z M 58.671875 55.949219 C 54.648438 55.949219 51.382812 59.226562 51.382812 63.257812 C 51.382812 67.285156 54.652344 70.5625 58.671875 70.5625 C 62.695312 70.5625 65.972656 67.285156 65.972656 63.257812 C 65.972656 59.226562 62.695312 55.949219 58.671875 55.949219 Z M 68.890625 60.640625 C 68.65625 60.902344 68.550781 61.253906 68.609375 61.597656 C 68.792969 62.65625 68.792969 63.859375 68.609375 64.914062 C 68.550781 65.257812 68.65625 65.613281 68.890625 65.871094 L 70.984375 68.195312 L 69.09375 71.460938 L 66.039062 70.8125 C 65.703125 70.738281 65.34375 70.828125 65.070312 71.046875 C 64.21875 71.757812 63.25 72.316406 62.210938 72.707031 C 61.882812 72.828125 61.628906 73.09375 61.523438 73.429688 L 60.5625 76.398438 L 56.792969 76.398438 L 55.832031 73.429688 C 55.714844 73.09375 55.464844 72.828125 55.136719 72.707031 C 54.105469 72.316406 53.136719 71.757812 52.273438 71.046875 C 52.011719 70.828125 51.65625 70.738281 51.304688 70.8125 L 48.253906 71.460938 L 46.371094 68.195312 L 48.457031 65.871094 C 48.699219 65.613281 48.796875 65.257812 48.738281 64.914062 C 48.558594 63.820312 48.558594 62.695312 48.738281 61.597656 C 48.796875 61.253906 48.699219 60.902344 48.457031 60.640625 L 46.371094 58.320312 L 48.253906 55.054688 L 51.304688 55.703125 C 51.65625 55.777344 52.011719 55.6875 52.273438 55.464844 C 53.136719 54.753906 54.105469 54.199219 55.136719 53.808594 C 55.464844 53.683594 55.714844 53.417969 55.832031 53.085938 L 56.792969 50.117188 L 60.5625 50.117188 L 61.523438 53.085938 C 61.628906 53.417969 61.882812 53.683594 62.210938 53.808594 C 63.25 54.199219 64.207031 54.753906 65.070312 55.464844 C 65.34375 55.6875 65.703125 55.777344 66.039062 55.703125 L 69.09375 55.054688 L 70.984375 58.320312 Z M 26.1875 59.726562 L 26.1875 39.847656 L 41.089844 24.929688 C 41.515625 24.503906 42.203125 24.503906 42.628906 24.929688 L 57.53125 39.847656 L 57.53125 47.8125 L 56.191406 47.8125 C 55.550781 47.8125 54.988281 48.21875 54.796875 48.828125 L 53.808594 51.859375 C 52.90625 52.25 52.050781 52.742188 51.257812 53.335938 L 48.144531 52.671875 C 47.515625 52.539062 46.886719 52.820312 46.566406 53.375 L 44.074219 57.691406 C 43.753906 58.246094 43.832031 58.933594 44.257812 59.410156 L 46.390625 61.785156 C 46.371094 61.921875 46.363281 62.058594 46.351562 62.195312 L 28.660156 62.195312 C 27.292969 62.195312 26.1875 61.089844 26.1875 59.726562 Z M 21.835938 40.949219 L 39.460938 23.300781 C 40.785156 21.972656 42.9375 21.976562 44.257812 23.300781 L 61.882812 40.949219 C 62.230469 41.304688 62.707031 41.496094 63.199219 41.496094 C 64.878906 41.496094 65.691406 39.472656 64.527344 38.304688 L 46.46875 20.269531 C 43.910156 17.714844 39.75 17.714844 37.191406 20.273438 L 19.1875 38.304688 C 18.839844 38.65625 18.648438 39.125 18.648438 39.628906 C 18.648438 41.324219 20.695312 42.101562 21.835938 40.949219 Z M 73.273438 57.691406 L 70.789062 53.375 C 70.472656 52.820312 69.832031 52.539062 69.210938 52.671875 L 66.089844 53.335938 C 65.304688 52.742188 64.449219 52.25 63.550781 51.859375 L 62.5625 48.824219 C 62.367188 48.21875 61.804688 47.8125 61.164062 47.8125 L 59.828125 47.8125 L 59.828125 42.152344 L 60.253906 42.582031 C 61.878906 44.210938 64.527344 44.210938 66.148438 42.582031 C 67.777344 40.953125 67.777344 38.304688 66.148438 36.675781 L 48.097656 18.636719 C 44.636719 15.183594 39.023438 15.191406 35.574219 18.644531 L 17.570312 36.675781 C 14.953125 39.296875 16.808594 43.800781 20.519531 43.800781 C 21.632812 43.800781 22.679688 43.367188 23.464844 42.582031 L 23.890625 42.152344 L 23.890625 59.726562 C 23.890625 62.359375 26.023438 64.5 28.660156 64.5 L 46.371094 64.5 C 46.371094 64.578125 46.382812 64.652344 46.390625 64.730469 L 44.257812 67.101562 C 43.832031 67.578125 43.753906 68.269531 44.074219 68.820312 L 46.566406 73.140625 C 46.886719 73.691406 47.515625 73.972656 48.136719 73.839844 L 51.257812 73.175781 C 52.050781 73.769531 52.90625 74.265625 53.808594 74.652344 L 54.796875 77.6875 C 54.988281 78.296875 55.550781 78.703125 56.191406 78.703125 L 61.164062 78.703125 C 61.804688 78.703125 62.367188 78.296875 62.5625 77.6875 L 63.550781 74.652344 C 64.449219 74.265625 65.304688 73.769531 66.089844 73.175781 L 69.210938 73.839844 C 69.832031 73.972656 70.472656 73.691406 70.789062 73.140625 L 73.273438 68.820312 C 73.59375 68.269531 73.523438 67.578125 73.097656 67.101562 L 70.964844 64.730469 C 71.082031 63.753906 71.082031 62.761719 70.964844 61.785156 L 73.097656 59.410156 C 73.523438 58.933594 73.59375 58.246094 73.273438 57.691406 Z M 73.273438 57.691406 " fill-opacity="1" fill-rule="evenodd"/></g><g clip-path="url(#33c23acea5)"><g clip-path="url(#8e8594ce9b)"><path fill="#000000" d="M 24.378906 55.804688 L 25.898438 55.804688 L 25.898438 57.328125 L 24.378906 57.328125 Z M 24.378906 55.804688 " fill-opacity="1" fill-rule="nonzero"/></g></g></svg>