<svg xmlns="http://www.w3.org/2000/svg" xmlns:xlink="http://www.w3.org/1999/xlink" width="110" zoomAndPan="magnify" viewBox="0 0 82.5 82.499998" height="110" preserveAspectRatio="xMidYMid meet" version="1.0"><defs><clipPath id="2d16236f71"><path d="M 8.199219 8.199219 L 73.800781 8.199219 L 73.800781 73.800781 L 8.199219 73.800781 Z M 8.199219 8.199219 " clip-rule="nonzero"/></clipPath><clipPath id="d1ab57c2ff"><path d="M 33.902344 30.453125 L 35.339844 30.453125 L 35.339844 34.402344 L 33.902344 34.402344 Z M 33.902344 30.453125 " clip-rule="nonzero"/></clipPath><clipPath id="60b0487280"><path d="M 34.621094 30.453125 C 34.226562 30.453125 33.902344 31.335938 33.902344 32.429688 C 33.902344 33.519531 34.226562 34.402344 34.621094 34.402344 C 35.019531 34.402344 35.339844 33.519531 35.339844 32.429688 C 35.339844 31.335938 35.019531 30.453125 34.621094 30.453125 Z M 34.621094 30.453125 " clip-rule="nonzero"/></clipPath></defs><g clip-path="url(#2d16236f71)"><path fill="#000000" d="M 71.414062 31.445312 L 71.414062 33.617188 L 69.242188 33.617188 L 69.242188 31.445312 Z M 67.070312 56.425781 L 67.070312 71.628906 L 56.207031 71.628906 L 56.207031 16.6875 L 61.636719 11.257812 L 67.070312 16.6875 Z M 71.414062 58.597656 L 71.414062 60.769531 L 69.242188 60.769531 L 69.242188 58.597656 Z M 48.605469 60.769531 L 48.605469 58.597656 L 54.035156 58.597656 L 54.035156 60.769531 Z M 46.433594 71.628906 L 35.570312 71.628906 L 35.570312 16.6875 L 41 11.257812 L 46.433594 16.6875 Z M 27.96875 60.769531 L 27.96875 58.597656 L 33.398438 58.597656 L 33.398438 60.769531 Z M 25.796875 71.628906 L 14.933594 71.628906 L 14.933594 16.6875 L 20.363281 11.257812 L 25.796875 16.6875 Z M 10.589844 60.769531 L 10.589844 58.597656 L 12.761719 58.597656 L 12.761719 60.769531 Z M 10.589844 33.617188 L 10.589844 31.445312 L 12.761719 31.445312 L 12.761719 33.617188 Z M 33.398438 35.789062 L 33.398438 56.425781 L 27.96875 56.425781 L 27.96875 35.789062 Z M 33.398438 31.445312 L 33.398438 33.617188 L 27.96875 33.617188 L 27.96875 31.445312 Z M 54.035156 35.789062 L 54.035156 56.425781 L 48.605469 56.425781 L 48.605469 35.789062 Z M 54.035156 31.445312 L 54.035156 33.617188 L 48.605469 33.617188 L 48.605469 31.445312 Z M 69.242188 15.789062 L 61.636719 8.183594 L 54.035156 15.789062 L 54.035156 29.269531 L 48.605469 29.269531 L 48.605469 15.789062 L 41 8.183594 L 33.398438 15.789062 L 33.398438 29.269531 L 27.96875 29.269531 L 27.96875 15.789062 L 20.363281 8.183594 L 12.761719 15.789062 L 12.761719 29.269531 L 8.417969 29.269531 L 8.417969 35.789062 L 12.761719 35.789062 L 12.761719 56.425781 L 8.417969 56.425781 L 8.417969 62.941406 L 12.761719 62.941406 L 12.761719 73.800781 L 27.96875 73.800781 L 27.96875 62.941406 L 33.398438 62.941406 L 33.398438 73.800781 L 48.605469 73.800781 L 48.605469 62.941406 L 54.035156 62.941406 L 54.035156 73.800781 L 69.242188 73.800781 L 69.242188 62.941406 L 73.585938 62.941406 L 73.585938 56.425781 L 69.242188 56.425781 L 69.242188 35.789062 L 73.585938 35.789062 L 73.585938 29.269531 L 69.242188 29.269531 L 69.242188 15.789062 " fill-opacity="1" fill-rule="nonzero"/></g><g clip-path="url(#d1ab57c2ff)"><g clip-path="url(#60b0487280)"><path fill="#000000" d="M 33.902344 30.453125 L 35.339844 30.453125 L 35.339844 34.402344 L 33.902344 34.402344 Z M 33.902344 30.453125 " fill-opacity="1" fill-rule="nonzero"/></g></g></svg>