<svg xmlns="http://www.w3.org/2000/svg" xmlns:xlink="http://www.w3.org/1999/xlink" width="110" zoomAndPan="magnify" viewBox="0 0 82.5 82.499998" height="110" preserveAspectRatio="xMidYMid meet" version="1.0"><defs><clipPath id="bf15b63cc6"><path d="M 41 18 L 79.777344 18 L 79.777344 35 L 41 35 Z M 41 18 " clip-rule="nonzero"/></clipPath><clipPath id="f185159b44"><path d="M 41 24 L 79.777344 24 L 79.777344 41 L 41 41 Z M 41 24 " clip-rule="nonzero"/></clipPath><clipPath id="56da8e0b37"><path d="M 40 30 L 79.777344 30 L 79.777344 48 L 40 48 Z M 40 30 " clip-rule="nonzero"/></clipPath><clipPath id="140d68b030"><path d="M 39 37 L 79.777344 37 L 79.777344 54 L 39 54 Z M 39 37 " clip-rule="nonzero"/></clipPath><clipPath id="5631e7c005"><path d="M 38 18 L 79.777344 18 L 79.777344 60 L 38 60 Z M 38 18 " clip-rule="nonzero"/></clipPath><clipPath id="6481403ea7"><path d="M 2.246094 12.226562 L 43 12.226562 L 43 69.628906 L 2.246094 69.628906 Z M 2.246094 12.226562 " clip-rule="nonzero"/></clipPath><clipPath id="7376b0431e"><path d="M 38.167969 28.441406 L 39.363281 28.441406 L 39.363281 31.722656 L 38.167969 31.722656 Z M 38.167969 28.441406 " clip-rule="nonzero"/></clipPath><clipPath id="4655b9f28d"><path d="M 38.765625 28.441406 C 38.4375 28.441406 38.167969 29.175781 38.167969 30.082031 C 38.167969 30.988281 38.4375 31.722656 38.765625 31.722656 C 39.09375 31.722656 39.363281 30.988281 39.363281 30.082031 C 39.363281 29.175781 39.09375 28.441406 38.765625 28.441406 Z M 38.765625 28.441406 " clip-rule="nonzero"/></clipPath></defs><g clip-path="url(#bf15b63cc6)"><path fill="#000000" d="M 64.671875 34.703125 L 43.222656 34.703125 C 42.535156 34.703125 41.972656 34.140625 41.972656 33.457031 C 41.972656 32.769531 42.535156 32.210938 43.222656 32.210938 L 64.152344 32.210938 L 75.390625 21.007812 L 45.09375 21.007812 C 44.40625 21.007812 43.847656 20.445312 43.847656 19.761719 C 43.847656 19.074219 44.40625 18.515625 45.09375 18.515625 L 78.402344 18.515625 C 78.910156 18.515625 79.363281 18.816406 79.554688 19.285156 C 79.75 19.75 79.640625 20.285156 79.285156 20.640625 L 65.554688 34.335938 C 65.320312 34.570312 65 34.703125 64.671875 34.703125 " fill-opacity="1" fill-rule="nonzero"/></g><g clip-path="url(#f185159b44)"><path fill="#000000" d="M 64.671875 40.925781 L 42.375 40.925781 C 41.679688 40.925781 41.125 40.367188 41.125 39.683594 C 41.125 38.996094 41.679688 38.4375 42.375 38.4375 L 64.152344 38.4375 L 77.519531 25.105469 C 78.007812 24.621094 78.796875 24.621094 79.285156 25.105469 C 79.773438 25.59375 79.773438 26.378906 79.285156 26.867188 L 65.554688 40.5625 C 65.320312 40.796875 65 40.925781 64.671875 40.925781 " fill-opacity="1" fill-rule="nonzero"/></g><g clip-path="url(#56da8e0b37)"><path fill="#000000" d="M 64.671875 47.152344 L 41.511719 47.152344 C 40.824219 47.152344 40.261719 46.59375 40.261719 45.90625 C 40.261719 45.222656 40.824219 44.664062 41.511719 44.664062 L 64.152344 44.664062 L 77.519531 31.332031 C 78.007812 30.84375 78.796875 30.84375 79.285156 31.332031 C 79.773438 31.816406 79.773438 32.605469 79.285156 33.09375 L 65.554688 46.789062 C 65.320312 47.019531 65 47.152344 64.671875 47.152344 " fill-opacity="1" fill-rule="nonzero"/></g><g clip-path="url(#140d68b030)"><path fill="#000000" d="M 64.671875 53.378906 L 40.660156 53.378906 C 39.972656 53.378906 39.414062 52.816406 39.414062 52.132812 C 39.414062 51.445312 39.972656 50.886719 40.660156 50.886719 L 64.152344 50.886719 L 77.519531 37.554688 C 78.007812 37.070312 78.796875 37.070312 79.285156 37.554688 C 79.773438 38.042969 79.773438 38.832031 79.285156 39.316406 L 65.554688 53.011719 C 65.320312 53.246094 65 53.378906 64.671875 53.378906 " fill-opacity="1" fill-rule="nonzero"/></g><g clip-path="url(#5631e7c005)"><path fill="#000000" d="M 64.671875 59.601562 L 39.8125 59.601562 C 39.121094 59.601562 38.5625 59.042969 38.5625 58.359375 C 38.5625 57.671875 39.121094 57.113281 39.8125 57.113281 L 64.152344 57.113281 L 77.15625 44.148438 L 77.15625 19.761719 C 77.15625 19.074219 77.714844 18.515625 78.402344 18.515625 C 79.089844 18.515625 79.652344 19.074219 79.652344 19.761719 L 79.652344 44.664062 C 79.652344 44.992188 79.519531 45.308594 79.285156 45.542969 L 65.554688 59.238281 C 65.320312 59.472656 65 59.601562 64.671875 59.601562 " fill-opacity="1" fill-rule="nonzero"/></g><g clip-path="url(#6481403ea7)"><path fill="#000000" d="M 4.925781 67.074219 L 32.371094 67.074219 L 39.519531 14.78125 L 12.078125 14.78125 Z M 33.457031 69.5625 L 3.496094 69.5625 C 3.132812 69.5625 2.792969 69.40625 2.554688 69.136719 C 2.316406 68.867188 2.207031 68.507812 2.257812 68.148438 L 9.746094 13.367188 C 9.835938 12.753906 10.363281 12.289062 10.984375 12.289062 L 40.949219 12.289062 C 41.308594 12.289062 41.652344 12.445312 41.890625 12.71875 C 42.128906 12.984375 42.238281 13.347656 42.1875 13.707031 L 34.695312 68.488281 C 34.609375 69.101562 34.082031 69.5625 33.457031 69.5625 " fill-opacity="1" fill-rule="nonzero"/></g><g clip-path="url(#7376b0431e)"><g clip-path="url(#4655b9f28d)"><path fill="#000000" d="M 38.167969 28.441406 L 39.363281 28.441406 L 39.363281 31.722656 L 38.167969 31.722656 Z M 38.167969 28.441406 " fill-opacity="1" fill-rule="nonzero"/></g></g></svg>