<svg xmlns="http://www.w3.org/2000/svg" xmlns:xlink="http://www.w3.org/1999/xlink" width="110" zoomAndPan="magnify" viewBox="0 0 82.5 82.499998" height="110" preserveAspectRatio="xMidYMid meet" version="1.0"><defs><clipPath id="423eafbdf5"><path d="M 5.03125 4.316406 L 77.34375 4.316406 L 77.34375 76.628906 L 5.03125 76.628906 Z M 5.03125 4.316406 " clip-rule="nonzero"/></clipPath><clipPath id="3f57d5f197"><path d="M 44 43 L 77.34375 43 L 77.34375 76.628906 L 44 76.628906 Z M 44 43 " clip-rule="nonzero"/></clipPath><clipPath id="070a97a3ee"><path d="M 14.835938 60.726562 L 16.359375 60.726562 L 16.359375 62.246094 L 14.835938 62.246094 Z M 14.835938 60.726562 " clip-rule="nonzero"/></clipPath><clipPath id="c766acf062"><path d="M 15.597656 60.726562 C 15.175781 60.726562 14.835938 61.066406 14.835938 61.484375 C 14.835938 61.90625 15.175781 62.246094 15.597656 62.246094 C 16.015625 62.246094 16.359375 61.90625 16.359375 61.484375 C 16.359375 61.066406 16.015625 60.726562 15.597656 60.726562 Z M 15.597656 60.726562 " clip-rule="nonzero"/></clipPath></defs><path fill="#000000" d="M 51.539062 43.628906 C 52.367188 43.628906 53.039062 42.957031 53.039062 42.128906 C 53.039062 41.300781 52.367188 40.628906 51.539062 40.628906 L 30.535156 40.628906 C 29.707031 40.628906 29.035156 41.300781 29.035156 42.128906 L 29.035156 63.128906 C 29.035156 63.957031 29.707031 64.632812 30.535156 64.632812 L 39.539062 64.632812 C 40.367188 64.632812 41.039062 63.957031 41.039062 63.128906 C 41.039062 62.300781 40.367188 61.628906 39.539062 61.628906 L 32.035156 61.628906 L 32.035156 43.628906 C 32.035156 43.628906 51.539062 43.628906 51.539062 43.628906 Z M 51.539062 43.628906 " fill-opacity="1" fill-rule="nonzero"/><g clip-path="url(#423eafbdf5)"><path fill="#000000" d="M 47.039062 73.632812 L 17.035156 73.632812 L 17.035156 39.125 C 17.035156 38.296875 16.363281 37.625 15.535156 37.625 L 10.152344 37.625 L 39.539062 8.238281 C 40.328125 7.449219 41.738281 7.445312 42.535156 8.238281 L 53.476562 19.183594 C 53.910156 19.613281 54.550781 19.746094 55.113281 19.507812 C 55.675781 19.277344 56.039062 18.726562 56.039062 18.125 L 56.039062 7.621094 L 65.042969 7.621094 L 65.042969 30.125 C 65.042969 30.523438 65.199219 30.90625 65.480469 31.1875 L 71.917969 37.625 L 66.539062 37.625 C 65.710938 37.625 65.039062 38.296875 65.039062 39.125 L 65.039062 40.628906 C 65.039062 41.457031 65.710938 42.128906 66.539062 42.128906 C 67.367188 42.128906 68.039062 41.457031 68.039062 40.628906 L 75.539062 40.628906 C 76.148438 40.628906 76.695312 40.261719 76.925781 39.699219 C 77.160156 39.140625 77.03125 38.492188 76.601562 38.066406 L 68.039062 29.5 L 68.039062 6.117188 C 68.039062 5.289062 67.367188 4.617188 66.539062 4.617188 L 54.535156 4.617188 C 53.707031 4.617188 53.035156 5.289062 53.035156 6.117188 L 53.035156 14.496094 L 44.65625 6.117188 C 42.726562 4.183594 39.355469 4.179688 37.417969 6.117188 L 5.46875 38.066406 C 5.039062 38.492188 4.910156 39.140625 5.144531 39.699219 C 5.378906 40.261719 5.925781 40.628906 6.53125 40.628906 L 14.035156 40.628906 L 14.035156 75.132812 C 14.035156 75.960938 14.707031 76.632812 15.535156 76.632812 L 47.039062 76.632812 C 47.867188 76.632812 48.539062 75.960938 48.539062 75.132812 C 48.539062 74.304688 47.867188 73.632812 47.039062 73.632812 Z M 47.039062 73.632812 " fill-opacity="1" fill-rule="nonzero"/></g><g clip-path="url(#3f57d5f197)"><path fill="#000000" d="M 60.542969 43.628906 C 51.445312 43.628906 44.042969 51.03125 44.042969 60.128906 C 44.042969 69.230469 51.445312 76.632812 60.542969 76.632812 C 69.644531 76.632812 77.046875 69.230469 77.046875 60.128906 C 77.046875 51.03125 69.644531 43.628906 60.542969 43.628906 Z M 60.542969 73.632812 C 53.101562 73.632812 47.042969 67.574219 47.042969 60.128906 C 47.042969 52.6875 53.101562 46.628906 60.542969 46.628906 C 67.992188 46.628906 74.046875 52.6875 74.046875 60.128906 C 74.046875 67.574219 67.988281 73.632812 60.542969 73.632812 Z M 60.542969 73.632812 " fill-opacity="1" fill-rule="nonzero"/></g><path fill="#000000" d="M 66.546875 58.628906 L 62.042969 58.628906 L 62.042969 54.128906 C 62.042969 53.300781 61.371094 52.628906 60.542969 52.628906 C 59.714844 52.628906 59.042969 53.300781 59.042969 54.128906 L 59.042969 58.628906 L 54.542969 58.628906 C 53.714844 58.628906 53.042969 59.300781 53.042969 60.128906 C 53.042969 60.957031 53.714844 61.628906 54.542969 61.628906 L 59.042969 61.628906 L 59.042969 66.132812 C 59.042969 66.960938 59.714844 67.632812 60.542969 67.632812 C 61.375 67.632812 62.042969 66.960938 62.042969 66.132812 L 62.042969 61.628906 L 66.546875 61.628906 C 67.375 61.628906 68.046875 60.957031 68.046875 60.128906 C 68.046875 59.300781 67.375 58.628906 66.546875 58.628906 Z M 66.546875 58.628906 " fill-opacity="1" fill-rule="nonzero"/><g clip-path="url(#070a97a3ee)"><g clip-path="url(#c766acf062)"><path fill="#000000" d="M 14.835938 60.726562 L 16.359375 60.726562 L 16.359375 62.246094 L 14.835938 62.246094 Z M 14.835938 60.726562 " fill-opacity="1" fill-rule="nonzero"/></g></g></svg>