<svg xmlns="http://www.w3.org/2000/svg" xmlns:xlink="http://www.w3.org/1999/xlink" width="110" zoomAndPan="magnify" viewBox="0 0 82.5 82.499998" height="110" preserveAspectRatio="xMidYMid meet" version="1.0"><defs><clipPath id="c8b3d3533b"><path d="M 2.105469 1.535156 L 79.636719 1.535156 L 79.636719 16 L 2.105469 16 Z M 2.105469 1.535156 " clip-rule="nonzero"/></clipPath><clipPath id="ff2b143fd9"><path d="M 7 13 L 74 13 L 74 78.320312 L 7 78.320312 Z M 7 13 " clip-rule="nonzero"/></clipPath><clipPath id="09119f1540"><path d="M 8.199219 57.742188 L 9.722656 57.742188 L 9.722656 59.265625 L 8.199219 59.265625 Z M 8.199219 57.742188 " clip-rule="nonzero"/></clipPath><clipPath id="333ba4ba30"><path d="M 8.960938 57.742188 C 8.542969 57.742188 8.199219 58.082031 8.199219 58.503906 C 8.199219 58.925781 8.542969 59.265625 8.960938 59.265625 C 9.382812 59.265625 9.722656 58.925781 9.722656 58.503906 C 9.722656 58.082031 9.382812 57.742188 8.960938 57.742188 Z M 8.960938 57.742188 " clip-rule="nonzero"/></clipPath></defs><g clip-path="url(#c8b3d3533b)"><path fill="#000000" d="M 72.511719 15.859375 L 9.230469 15.859375 C 5.3125 15.859375 2.121094 12.644531 2.121094 8.695312 C 2.121094 4.742188 5.3125 1.527344 9.230469 1.527344 L 72.511719 1.527344 C 76.429688 1.527344 79.621094 4.742188 79.621094 8.695312 C 79.621094 12.644531 76.429688 15.859375 72.511719 15.859375 Z M 9.230469 4.046875 C 6.6875 4.046875 4.621094 6.132812 4.621094 8.695312 C 4.621094 11.257812 6.6875 13.339844 9.230469 13.339844 L 72.511719 13.339844 C 75.050781 13.339844 77.121094 11.257812 77.121094 8.695312 C 77.121094 6.132812 75.050781 4.046875 72.511719 4.046875 Z M 9.230469 4.046875 " fill-opacity="1" fill-rule="nonzero"/></g><g clip-path="url(#ff2b143fd9)"><path fill="#000000" d="M 69.839844 78.3125 L 53.585938 78.3125 C 52.316406 78.3125 51.117188 77.6875 50.382812 76.640625 C 49.652344 75.597656 49.464844 74.25 49.890625 73.042969 L 57.398438 51.621094 C 49.171875 47.101562 43.304688 39.535156 40.871094 30.699219 C 38.4375 39.539062 32.570312 47.097656 24.34375 51.621094 L 31.851562 73.042969 C 32.273438 74.25 32.089844 75.597656 31.355469 76.640625 C 30.621094 77.6875 29.425781 78.3125 28.15625 78.3125 L 11.902344 78.3125 C 9.738281 78.3125 7.980469 76.539062 7.980469 74.359375 L 7.980469 14.601562 C 7.980469 13.90625 8.539062 13.339844 9.230469 13.339844 L 72.511719 13.339844 C 73.199219 13.339844 73.761719 13.90625 73.761719 14.601562 L 73.761719 74.359375 C 73.761719 76.539062 72 78.3125 69.839844 78.3125 Z M 40.871094 20.148438 C 41.5625 20.148438 42.121094 20.710938 42.121094 21.40625 C 42.121094 33.515625 48.78125 44.429688 59.5 49.886719 C 60.0625 50.175781 60.324219 50.835938 60.117188 51.433594 L 52.246094 73.882812 C 52.089844 74.328125 52.15625 74.800781 52.425781 75.1875 C 52.695312 75.570312 53.117188 75.792969 53.585938 75.792969 L 69.839844 75.792969 C 70.625 75.792969 71.261719 75.148438 71.261719 74.359375 L 71.261719 15.859375 L 10.480469 15.859375 L 10.480469 74.359375 C 10.480469 75.148438 11.117188 75.792969 11.902344 75.792969 L 28.15625 75.792969 C 28.621094 75.792969 29.046875 75.570312 29.316406 75.1875 C 29.585938 74.800781 29.648438 74.328125 29.492188 73.882812 L 21.625 51.433594 C 21.414062 50.835938 21.679688 50.175781 22.242188 49.886719 C 32.960938 44.429688 39.621094 33.515625 39.621094 21.40625 C 39.621094 20.710938 40.179688 20.148438 40.871094 20.148438 Z M 40.871094 20.148438 " fill-opacity="1" fill-rule="nonzero"/></g><path fill="#000000" d="M 22.804688 52.273438 L 9.230469 52.273438 C 8.539062 52.273438 7.980469 51.707031 7.980469 51.011719 C 7.980469 50.316406 8.539062 49.753906 9.230469 49.753906 L 22.804688 49.753906 C 23.492188 49.753906 24.054688 50.316406 24.054688 51.011719 C 24.054688 51.710938 23.492188 52.273438 22.804688 52.273438 Z M 22.804688 52.273438 " fill-opacity="1" fill-rule="nonzero"/><path fill="#000000" d="M 72.511719 52.273438 L 58.9375 52.273438 C 58.246094 52.273438 57.6875 51.707031 57.6875 51.011719 C 57.6875 50.316406 58.246094 49.753906 58.9375 49.753906 L 72.511719 49.753906 C 73.199219 49.753906 73.761719 50.316406 73.761719 51.011719 C 73.761719 51.710938 73.199219 52.273438 72.511719 52.273438 Z M 72.511719 52.273438 " fill-opacity="1" fill-rule="nonzero"/><path fill="#000000" d="M 52.480469 70.34375 L 29.136719 70.34375 C 28.449219 70.34375 27.886719 69.78125 27.886719 69.085938 C 27.886719 68.390625 28.449219 67.824219 29.136719 67.824219 L 52.480469 67.824219 C 53.171875 67.824219 53.730469 68.390625 53.730469 69.085938 C 53.730469 69.78125 53.171875 70.34375 52.480469 70.34375 Z M 52.480469 70.34375 " fill-opacity="1" fill-rule="nonzero"/><path fill="#000000" d="M 54.613281 64.605469 L 27.128906 64.605469 C 26.4375 64.605469 25.878906 64.042969 25.878906 63.347656 C 25.878906 62.652344 26.4375 62.085938 27.128906 62.085938 L 54.613281 62.085938 C 55.304688 62.085938 55.863281 62.652344 55.863281 63.347656 C 55.863281 64.042969 55.304688 64.605469 54.613281 64.605469 Z M 54.613281 64.605469 " fill-opacity="1" fill-rule="nonzero"/><path fill="#000000" d="M 40.871094 64.605469 C 40.179688 64.605469 39.621094 64.042969 39.621094 63.347656 L 39.621094 14.601562 C 39.621094 13.90625 40.179688 13.339844 40.871094 13.339844 C 41.5625 13.339844 42.121094 13.90625 42.121094 14.601562 L 42.121094 63.347656 C 42.121094 64.042969 41.5625 64.605469 40.871094 64.605469 Z M 40.871094 64.605469 " fill-opacity="1" fill-rule="nonzero"/><path fill="#000000" d="M 18.386719 42.972656 C 17.960938 42.972656 17.546875 42.753906 17.3125 42.359375 C 16.957031 41.761719 17.152344 40.992188 17.746094 40.632812 C 28.300781 34.273438 30.386719 21.675781 30.40625 21.550781 C 30.511719 20.863281 31.15625 20.390625 31.832031 20.5 C 32.511719 20.609375 32.980469 21.253906 32.875 21.941406 C 32.789062 22.503906 30.613281 35.816406 19.027344 42.796875 C 18.824219 42.917969 18.605469 42.972656 18.386719 42.972656 Z M 18.386719 42.972656 " fill-opacity="1" fill-rule="nonzero"/><path fill="#000000" d="M 18.382812 70.34375 L 9.230469 70.34375 C 8.539062 70.34375 7.980469 69.78125 7.980469 69.085938 C 7.980469 68.390625 8.539062 67.824219 9.230469 67.824219 L 18.386719 67.824219 C 19.074219 67.824219 19.636719 68.390625 19.636719 69.085938 C 19.636719 69.78125 19.074219 70.34375 18.382812 70.34375 Z M 18.382812 70.34375 " fill-opacity="1" fill-rule="nonzero"/><path fill="#000000" d="M 63.355469 42.972656 C 63.136719 42.972656 62.914062 42.917969 62.714844 42.796875 C 51.128906 35.816406 48.953125 22.503906 48.867188 21.9375 C 48.761719 21.253906 49.226562 20.609375 49.90625 20.5 C 50.578125 20.390625 51.226562 20.863281 51.335938 21.550781 C 51.355469 21.675781 53.4375 34.273438 63.996094 40.632812 C 64.589844 40.988281 64.78125 41.761719 64.429688 42.359375 C 64.195312 42.753906 63.78125 42.972656 63.355469 42.972656 Z M 63.355469 42.972656 " fill-opacity="1" fill-rule="nonzero"/><path fill="#000000" d="M 72.511719 70.34375 L 63.355469 70.34375 C 62.664062 70.34375 62.105469 69.78125 62.105469 69.085938 C 62.105469 68.390625 62.664062 67.824219 63.355469 67.824219 L 72.511719 67.824219 C 73.199219 67.824219 73.761719 68.390625 73.761719 69.085938 C 73.761719 69.78125 73.199219 70.34375 72.511719 70.34375 Z M 72.511719 70.34375 " fill-opacity="1" fill-rule="nonzero"/><g clip-path="url(#09119f1540)"><g clip-path="url(#333ba4ba30)"><path fill="#000000" d="M 8.199219 57.742188 L 9.722656 57.742188 L 9.722656 59.265625 L 8.199219 59.265625 Z M 8.199219 57.742188 " fill-opacity="1" fill-rule="nonzero"/></g></g></svg>