<svg xmlns="http://www.w3.org/2000/svg" xmlns:xlink="http://www.w3.org/1999/xlink" width="110" zoomAndPan="magnify" viewBox="0 0 82.5 82.499998" height="110" preserveAspectRatio="xMidYMid meet" version="1.0"><defs><clipPath id="09da661258"><path d="M 8.335938 35 L 73.941406 35 L 73.941406 69.507812 L 8.335938 69.507812 Z M 8.335938 35 " clip-rule="nonzero"/></clipPath><clipPath id="a0bb1d9e9f"><path d="M 12 12.851562 L 70 12.851562 L 70 31 L 12 31 Z M 12 12.851562 " clip-rule="nonzero"/></clipPath><clipPath id="825920b6b4"><path d="M 40.214844 50.347656 L 41.789062 50.347656 L 41.789062 54.679688 L 40.214844 54.679688 Z M 40.214844 50.347656 " clip-rule="nonzero"/></clipPath><clipPath id="58ef784ecf"><path d="M 41 50.347656 C 40.566406 50.347656 40.214844 51.316406 40.214844 52.511719 C 40.214844 53.710938 40.566406 54.679688 41 54.679688 C 41.4375 54.679688 41.789062 53.710938 41.789062 52.511719 C 41.789062 51.316406 41.4375 50.347656 41 50.347656 Z M 41 50.347656 " clip-rule="nonzero"/></clipPath></defs><g clip-path="url(#09da661258)"><path fill="#000000" d="M 72.523438 46.628906 L 60.140625 46.628906 L 60.140625 36.496094 C 60.140625 36.347656 60.109375 36.203125 60.054688 36.066406 C 59.996094 35.925781 59.914062 35.804688 59.808594 35.699219 C 59.703125 35.59375 59.582031 35.511719 59.445312 35.457031 C 59.308594 35.398438 59.164062 35.371094 59.015625 35.371094 L 52.257812 35.371094 C 52.109375 35.371094 51.964844 35.398438 51.828125 35.457031 C 51.691406 35.511719 51.566406 35.59375 51.460938 35.699219 C 51.355469 35.804688 51.273438 35.925781 51.21875 36.066406 C 51.160156 36.203125 51.132812 36.347656 51.132812 36.496094 L 51.132812 39.875 C 51.132812 40.023438 51.160156 40.167969 51.21875 40.304688 C 51.273438 40.441406 51.355469 40.5625 51.460938 40.667969 C 51.566406 40.773438 51.6875 40.855469 51.828125 40.914062 C 51.964844 40.96875 52.109375 41 52.257812 41 C 52.40625 41 52.550781 40.96875 52.6875 40.914062 C 52.828125 40.855469 52.949219 40.773438 53.054688 40.667969 C 53.160156 40.5625 53.242188 40.441406 53.296875 40.304688 C 53.355469 40.167969 53.382812 40.023438 53.382812 39.875 L 53.382812 37.621094 L 57.886719 37.621094 L 57.886719 46.628906 L 31.992188 46.628906 L 31.992188 45.605469 C 31.984375 45.1875 31.921875 44.777344 31.800781 44.375 L 33.75 43.082031 C 33.871094 43 33.976562 42.894531 34.058594 42.769531 C 34.140625 42.644531 34.195312 42.507812 34.226562 42.363281 C 34.253906 42.214844 34.253906 42.070312 34.222656 41.921875 C 34.191406 41.777344 34.136719 41.640625 34.054688 41.515625 C 33.96875 41.394531 33.863281 41.289062 33.738281 41.207031 C 33.617188 41.125 33.480469 41.070312 33.332031 41.039062 C 33.1875 41.011719 33.039062 41.011719 32.894531 41.042969 C 32.746094 41.074219 32.609375 41.128906 32.488281 41.214844 L 30.6875 42.417969 C 30.109375 41.816406 29.417969 41.40625 28.613281 41.191406 L 28.613281 39.875 C 28.613281 39.425781 28.527344 38.996094 28.355469 38.582031 C 28.1875 38.167969 27.941406 37.800781 27.625 37.484375 C 27.308594 37.167969 26.941406 36.925781 26.527344 36.753906 C 26.113281 36.582031 25.683594 36.496094 25.238281 36.496094 C 24.789062 36.496094 24.359375 36.582031 23.945312 36.753906 C 23.53125 36.925781 23.164062 37.167969 22.847656 37.484375 C 22.53125 37.800781 22.289062 38.167969 22.117188 38.582031 C 21.945312 38.996094 21.859375 39.425781 21.859375 39.875 L 21.859375 41.191406 C 21.375 41.324219 20.921875 41.527344 20.507812 41.808594 C 20.089844 42.089844 19.730469 42.429688 19.425781 42.828125 C 19.121094 43.226562 18.886719 43.664062 18.722656 44.136719 C 18.5625 44.613281 18.480469 45.101562 18.480469 45.605469 L 18.480469 46.628906 L 9.472656 46.628906 C 9.324219 46.628906 9.179688 46.65625 9.042969 46.714844 C 8.90625 46.769531 8.78125 46.851562 8.675781 46.957031 C 8.570312 47.0625 8.492188 47.1875 8.433594 47.324219 C 8.375 47.460938 8.347656 47.605469 8.347656 47.753906 L 8.347656 68.019531 C 8.347656 68.171875 8.375 68.3125 8.433594 68.453125 C 8.492188 68.589844 8.570312 68.710938 8.675781 68.816406 C 8.78125 68.921875 8.90625 69.003906 9.042969 69.0625 C 9.179688 69.117188 9.324219 69.148438 9.472656 69.148438 L 72.523438 69.148438 C 72.675781 69.148438 72.816406 69.117188 72.957031 69.0625 C 73.09375 69.003906 73.214844 68.921875 73.320312 68.816406 C 73.425781 68.710938 73.507812 68.589844 73.566406 68.453125 C 73.621094 68.3125 73.652344 68.171875 73.652344 68.019531 L 73.652344 47.753906 C 73.652344 47.605469 73.621094 47.460938 73.566406 47.324219 C 73.507812 47.1875 73.425781 47.0625 73.320312 46.957031 C 73.214844 46.851562 73.09375 46.769531 72.957031 46.714844 C 72.816406 46.65625 72.675781 46.628906 72.523438 46.628906 Z M 24.109375 60.140625 L 10.597656 60.140625 L 10.597656 55.636719 L 24.109375 55.636719 Z M 26.363281 48.878906 L 39.875 48.878906 L 39.875 66.894531 L 26.363281 66.894531 Z M 42.125 48.878906 L 55.636719 48.878906 L 55.636719 66.894531 L 42.125 66.894531 Z M 25.238281 38.746094 C 25.386719 38.746094 25.53125 38.777344 25.667969 38.832031 C 25.804688 38.890625 25.925781 38.972656 26.03125 39.078125 C 26.136719 39.183594 26.21875 39.304688 26.277344 39.441406 C 26.332031 39.582031 26.363281 39.722656 26.363281 39.875 L 26.363281 41 L 24.109375 41 L 24.109375 39.875 C 24.109375 39.722656 24.140625 39.582031 24.195312 39.441406 C 24.253906 39.304688 24.335938 39.183594 24.441406 39.078125 C 24.546875 38.972656 24.667969 38.890625 24.804688 38.832031 C 24.945312 38.777344 25.085938 38.746094 25.238281 38.746094 Z M 20.734375 45.605469 C 20.734375 45.292969 20.796875 44.992188 20.914062 44.707031 C 21.035156 44.417969 21.203125 44.164062 21.425781 43.945312 C 21.644531 43.722656 21.898438 43.554688 22.1875 43.433594 C 22.476562 43.3125 22.773438 43.253906 23.085938 43.25 L 27.386719 43.25 C 27.699219 43.253906 28 43.3125 28.285156 43.433594 C 28.574219 43.554688 28.828125 43.722656 29.046875 43.945312 C 29.269531 44.164062 29.4375 44.417969 29.558594 44.707031 C 29.679688 44.992188 29.738281 45.292969 29.738281 45.605469 L 29.738281 46.628906 L 20.734375 46.628906 Z M 19.605469 48.878906 L 24.109375 48.878906 L 24.109375 53.382812 L 10.597656 53.382812 L 10.597656 48.878906 Z M 10.597656 62.390625 L 24.109375 62.390625 L 24.109375 66.894531 L 10.597656 66.894531 Z M 71.398438 66.894531 L 57.886719 66.894531 L 57.886719 48.878906 L 71.398438 48.878906 Z M 71.398438 66.894531 " fill-opacity="1" fill-rule="nonzero"/></g><g clip-path="url(#a0bb1d9e9f)"><path fill="#000000" d="M 13.976562 30.867188 L 68.019531 30.867188 C 68.171875 30.867188 68.3125 30.835938 68.453125 30.78125 C 68.589844 30.722656 68.710938 30.640625 68.816406 30.535156 C 68.921875 30.429688 69.003906 30.308594 69.0625 30.171875 C 69.117188 30.03125 69.148438 29.890625 69.148438 29.738281 L 69.148438 13.976562 C 69.148438 13.828125 69.117188 13.683594 69.0625 13.546875 C 69.003906 13.410156 68.921875 13.285156 68.816406 13.179688 C 68.710938 13.074219 68.589844 12.992188 68.453125 12.9375 C 68.3125 12.878906 68.171875 12.851562 68.019531 12.851562 L 13.976562 12.851562 C 13.828125 12.851562 13.683594 12.878906 13.546875 12.9375 C 13.410156 12.992188 13.285156 13.074219 13.179688 13.179688 C 13.074219 13.285156 12.996094 13.410156 12.9375 13.546875 C 12.878906 13.683594 12.851562 13.828125 12.851562 13.976562 L 12.851562 29.738281 C 12.851562 29.890625 12.878906 30.03125 12.9375 30.171875 C 12.996094 30.308594 13.074219 30.429688 13.179688 30.535156 C 13.285156 30.640625 13.410156 30.722656 13.546875 30.78125 C 13.683594 30.835938 13.828125 30.867188 13.976562 30.867188 Z M 39.875 28.613281 L 28.613281 28.613281 L 28.613281 15.101562 L 39.875 15.101562 Z M 42.125 15.101562 L 53.382812 15.101562 L 53.382812 28.613281 L 42.125 28.613281 Z M 66.894531 28.613281 L 55.636719 28.613281 L 55.636719 15.101562 L 66.894531 15.101562 Z M 15.101562 15.101562 L 26.363281 15.101562 L 26.363281 28.613281 L 15.101562 28.613281 Z M 15.101562 15.101562 " fill-opacity="1" fill-rule="nonzero"/></g><path fill="#000000" d="M 53.382812 57.886719 C 53.382812 58.035156 53.355469 58.179688 53.296875 58.320312 C 53.242188 58.457031 53.160156 58.578125 53.054688 58.683594 C 52.949219 58.789062 52.828125 58.871094 52.6875 58.929688 C 52.550781 58.984375 52.40625 59.011719 52.257812 59.011719 C 52.109375 59.011719 51.964844 58.984375 51.828125 58.929688 C 51.6875 58.871094 51.566406 58.789062 51.460938 58.683594 C 51.355469 58.578125 51.273438 58.457031 51.21875 58.320312 C 51.160156 58.179688 51.132812 58.035156 51.132812 57.886719 C 51.132812 57.738281 51.160156 57.59375 51.21875 57.457031 C 51.273438 57.320312 51.355469 57.195312 51.460938 57.089844 C 51.566406 56.984375 51.6875 56.90625 51.828125 56.847656 C 51.964844 56.789062 52.109375 56.761719 52.257812 56.761719 C 52.40625 56.761719 52.550781 56.789062 52.6875 56.847656 C 52.828125 56.90625 52.949219 56.984375 53.054688 57.089844 C 53.160156 57.195312 53.242188 57.320312 53.296875 57.457031 C 53.355469 57.59375 53.382812 57.738281 53.382812 57.886719 Z M 53.382812 57.886719 " fill-opacity="1" fill-rule="nonzero"/><path fill="#000000" d="M 30.867188 57.886719 C 30.867188 58.035156 30.835938 58.179688 30.78125 58.320312 C 30.722656 58.457031 30.640625 58.578125 30.535156 58.683594 C 30.429688 58.789062 30.308594 58.871094 30.171875 58.929688 C 30.03125 58.984375 29.890625 59.011719 29.738281 59.011719 C 29.589844 59.011719 29.445312 58.984375 29.308594 58.929688 C 29.171875 58.871094 29.050781 58.789062 28.945312 58.683594 C 28.839844 58.578125 28.757812 58.457031 28.699219 58.320312 C 28.644531 58.179688 28.613281 58.035156 28.613281 57.886719 C 28.613281 57.738281 28.644531 57.59375 28.699219 57.457031 C 28.757812 57.320312 28.839844 57.195312 28.945312 57.089844 C 29.050781 56.984375 29.171875 56.90625 29.308594 56.847656 C 29.445312 56.789062 29.589844 56.761719 29.738281 56.761719 C 29.890625 56.761719 30.03125 56.789062 30.171875 56.847656 C 30.308594 56.90625 30.429688 56.984375 30.535156 57.089844 C 30.640625 57.195312 30.722656 57.320312 30.78125 57.457031 C 30.835938 57.59375 30.867188 57.738281 30.867188 57.886719 Z M 30.867188 57.886719 " fill-opacity="1" fill-rule="nonzero"/><path fill="#000000" d="M 62.390625 57.886719 C 62.390625 58.035156 62.363281 58.179688 62.304688 58.320312 C 62.25 58.457031 62.167969 58.578125 62.0625 58.683594 C 61.957031 58.789062 61.835938 58.871094 61.695312 58.929688 C 61.558594 58.984375 61.414062 59.011719 61.265625 59.011719 C 61.117188 59.011719 60.972656 58.984375 60.835938 58.929688 C 60.695312 58.871094 60.574219 58.789062 60.46875 58.683594 C 60.363281 58.578125 60.28125 58.457031 60.226562 58.320312 C 60.167969 58.179688 60.140625 58.035156 60.140625 57.886719 C 60.140625 57.738281 60.167969 57.59375 60.226562 57.457031 C 60.28125 57.320312 60.363281 57.195312 60.46875 57.089844 C 60.574219 56.984375 60.695312 56.90625 60.835938 56.847656 C 60.972656 56.789062 61.117188 56.761719 61.265625 56.761719 C 61.414062 56.761719 61.558594 56.789062 61.695312 56.847656 C 61.835938 56.90625 61.957031 56.984375 62.0625 57.089844 C 62.167969 57.195312 62.25 57.320312 62.304688 57.457031 C 62.363281 57.59375 62.390625 57.738281 62.390625 57.886719 Z M 62.390625 57.886719 " fill-opacity="1" fill-rule="nonzero"/><path fill="#000000" d="M 18.480469 57.886719 C 18.480469 58.035156 18.453125 58.179688 18.394531 58.320312 C 18.339844 58.457031 18.257812 58.578125 18.152344 58.683594 C 18.046875 58.789062 17.925781 58.871094 17.785156 58.929688 C 17.648438 58.984375 17.503906 59.011719 17.355469 59.011719 C 17.207031 59.011719 17.0625 58.984375 16.925781 58.929688 C 16.785156 58.871094 16.664062 58.789062 16.558594 58.683594 C 16.453125 58.578125 16.371094 58.457031 16.316406 58.320312 C 16.257812 58.179688 16.230469 58.035156 16.230469 57.886719 C 16.230469 57.738281 16.257812 57.59375 16.316406 57.457031 C 16.371094 57.320312 16.453125 57.195312 16.558594 57.089844 C 16.664062 56.984375 16.785156 56.90625 16.925781 56.847656 C 17.0625 56.789062 17.207031 56.761719 17.355469 56.761719 C 17.503906 56.761719 17.648438 56.789062 17.785156 56.847656 C 17.925781 56.90625 18.046875 56.984375 18.152344 57.089844 C 18.257812 57.195312 18.339844 57.320312 18.394531 57.457031 C 18.453125 57.59375 18.480469 57.738281 18.480469 57.886719 Z M 18.480469 57.886719 " fill-opacity="1" fill-rule="nonzero"/><path fill="#000000" d="M 18.480469 64.644531 C 18.480469 64.792969 18.453125 64.9375 18.394531 65.074219 C 18.339844 65.210938 18.257812 65.332031 18.152344 65.4375 C 18.046875 65.542969 17.925781 65.625 17.785156 65.683594 C 17.648438 65.742188 17.503906 65.769531 17.355469 65.769531 C 17.207031 65.769531 17.0625 65.742188 16.925781 65.683594 C 16.785156 65.625 16.664062 65.542969 16.558594 65.4375 C 16.453125 65.332031 16.371094 65.210938 16.316406 65.074219 C 16.257812 64.9375 16.230469 64.792969 16.230469 64.644531 C 16.230469 64.492188 16.257812 64.351562 16.316406 64.210938 C 16.371094 64.074219 16.453125 63.953125 16.558594 63.847656 C 16.664062 63.742188 16.785156 63.660156 16.925781 63.601562 C 17.0625 63.546875 17.207031 63.515625 17.355469 63.515625 C 17.503906 63.515625 17.648438 63.546875 17.785156 63.601562 C 17.925781 63.660156 18.046875 63.742188 18.152344 63.847656 C 18.257812 63.953125 18.339844 64.074219 18.394531 64.210938 C 18.453125 64.351562 18.480469 64.492188 18.480469 64.644531 Z M 18.480469 64.644531 " fill-opacity="1" fill-rule="nonzero"/><path fill="#000000" d="M 18.480469 51.132812 C 18.480469 51.28125 18.453125 51.425781 18.394531 51.5625 C 18.339844 51.699219 18.257812 51.824219 18.152344 51.929688 C 18.046875 52.035156 17.925781 52.117188 17.785156 52.171875 C 17.648438 52.230469 17.503906 52.257812 17.355469 52.257812 C 17.207031 52.257812 17.0625 52.230469 16.925781 52.171875 C 16.785156 52.117188 16.664062 52.035156 16.558594 51.929688 C 16.453125 51.824219 16.371094 51.699219 16.316406 51.5625 C 16.257812 51.425781 16.230469 51.28125 16.230469 51.132812 C 16.230469 50.984375 16.257812 50.839844 16.316406 50.703125 C 16.371094 50.5625 16.453125 50.441406 16.558594 50.335938 C 16.664062 50.230469 16.785156 50.148438 16.925781 50.09375 C 17.0625 50.035156 17.207031 50.007812 17.355469 50.007812 C 17.503906 50.007812 17.648438 50.035156 17.785156 50.09375 C 17.925781 50.148438 18.046875 50.230469 18.152344 50.335938 C 18.257812 50.441406 18.339844 50.5625 18.394531 50.703125 C 18.453125 50.839844 18.480469 50.984375 18.480469 51.132812 Z M 18.480469 51.132812 " fill-opacity="1" fill-rule="nonzero"/><path fill="#000000" d="M 24.109375 21.859375 C 24.109375 22.007812 24.082031 22.152344 24.023438 22.289062 C 23.96875 22.425781 23.886719 22.550781 23.78125 22.65625 C 23.675781 22.761719 23.554688 22.839844 23.414062 22.898438 C 23.277344 22.957031 23.132812 22.984375 22.984375 22.984375 C 22.835938 22.984375 22.691406 22.957031 22.554688 22.898438 C 22.414062 22.839844 22.292969 22.761719 22.1875 22.65625 C 22.082031 22.550781 22 22.425781 21.945312 22.289062 C 21.886719 22.152344 21.859375 22.007812 21.859375 21.859375 C 21.859375 21.710938 21.886719 21.566406 21.945312 21.425781 C 22 21.289062 22.082031 21.167969 22.1875 21.0625 C 22.292969 20.957031 22.414062 20.875 22.554688 20.820312 C 22.691406 20.761719 22.835938 20.734375 22.984375 20.734375 C 23.132812 20.734375 23.277344 20.761719 23.414062 20.820312 C 23.554688 20.875 23.675781 20.957031 23.78125 21.0625 C 23.886719 21.167969 23.96875 21.289062 24.023438 21.425781 C 24.082031 21.566406 24.109375 21.710938 24.109375 21.859375 Z M 24.109375 21.859375 " fill-opacity="1" fill-rule="nonzero"/><path fill="#000000" d="M 33.117188 21.859375 C 33.117188 22.007812 33.089844 22.152344 33.03125 22.289062 C 32.976562 22.425781 32.894531 22.550781 32.789062 22.65625 C 32.683594 22.761719 32.5625 22.839844 32.421875 22.898438 C 32.285156 22.957031 32.140625 22.984375 31.992188 22.984375 C 31.84375 22.984375 31.699219 22.957031 31.5625 22.898438 C 31.421875 22.839844 31.300781 22.761719 31.195312 22.65625 C 31.089844 22.550781 31.007812 22.425781 30.953125 22.289062 C 30.894531 22.152344 30.867188 22.007812 30.867188 21.859375 C 30.867188 21.710938 30.894531 21.566406 30.953125 21.425781 C 31.007812 21.289062 31.089844 21.167969 31.195312 21.0625 C 31.300781 20.957031 31.421875 20.875 31.5625 20.820312 C 31.699219 20.761719 31.84375 20.734375 31.992188 20.734375 C 32.140625 20.734375 32.285156 20.761719 32.421875 20.820312 C 32.5625 20.875 32.683594 20.957031 32.789062 21.0625 C 32.894531 21.167969 32.976562 21.289062 33.03125 21.425781 C 33.089844 21.566406 33.117188 21.710938 33.117188 21.859375 Z M 33.117188 21.859375 " fill-opacity="1" fill-rule="nonzero"/><path fill="#000000" d="M 51.132812 21.859375 C 51.132812 22.007812 51.105469 22.152344 51.046875 22.289062 C 50.988281 22.425781 50.90625 22.550781 50.800781 22.65625 C 50.695312 22.761719 50.574219 22.839844 50.4375 22.898438 C 50.300781 22.957031 50.15625 22.984375 50.007812 22.984375 C 49.855469 22.984375 49.714844 22.957031 49.574219 22.898438 C 49.4375 22.839844 49.316406 22.761719 49.210938 22.65625 C 49.105469 22.550781 49.023438 22.425781 48.964844 22.289062 C 48.910156 22.152344 48.878906 22.007812 48.878906 21.859375 C 48.878906 21.710938 48.910156 21.566406 48.964844 21.425781 C 49.023438 21.289062 49.105469 21.167969 49.210938 21.0625 C 49.316406 20.957031 49.4375 20.875 49.574219 20.820312 C 49.714844 20.761719 49.855469 20.734375 50.007812 20.734375 C 50.15625 20.734375 50.300781 20.761719 50.4375 20.820312 C 50.574219 20.875 50.695312 20.957031 50.800781 21.0625 C 50.90625 21.167969 50.988281 21.289062 51.046875 21.425781 C 51.105469 21.566406 51.132812 21.710938 51.132812 21.859375 Z M 51.132812 21.859375 " fill-opacity="1" fill-rule="nonzero"/><path fill="#000000" d="M 60.140625 21.859375 C 60.140625 22.007812 60.109375 22.152344 60.054688 22.289062 C 59.996094 22.425781 59.914062 22.550781 59.808594 22.65625 C 59.703125 22.761719 59.582031 22.839844 59.445312 22.898438 C 59.308594 22.957031 59.164062 22.984375 59.015625 22.984375 C 58.863281 22.984375 58.722656 22.957031 58.582031 22.898438 C 58.445312 22.839844 58.324219 22.761719 58.21875 22.65625 C 58.113281 22.550781 58.03125 22.425781 57.972656 22.289062 C 57.917969 22.152344 57.886719 22.007812 57.886719 21.859375 C 57.886719 21.710938 57.917969 21.566406 57.972656 21.425781 C 58.03125 21.289062 58.113281 21.167969 58.21875 21.0625 C 58.324219 20.957031 58.445312 20.875 58.582031 20.820312 C 58.722656 20.761719 58.863281 20.734375 59.015625 20.734375 C 59.164062 20.734375 59.308594 20.761719 59.445312 20.820312 C 59.582031 20.875 59.703125 20.957031 59.808594 21.0625 C 59.914062 21.167969 59.996094 21.289062 60.054688 21.425781 C 60.109375 21.566406 60.140625 21.710938 60.140625 21.859375 Z M 60.140625 21.859375 " fill-opacity="1" fill-rule="nonzero"/><g clip-path="url(#825920b6b4)"><g clip-path="url(#58ef784ecf)"><path fill="#000000" d="M 40.214844 50.347656 L 41.789062 50.347656 L 41.789062 54.679688 L 40.214844 54.679688 Z M 40.214844 50.347656 " fill-opacity="1" fill-rule="nonzero"/></g></g></svg>