<svg xmlns="http://www.w3.org/2000/svg" xmlns:xlink="http://www.w3.org/1999/xlink" width="110" zoomAndPan="magnify" viewBox="0 0 82.5 82.499998" height="110" preserveAspectRatio="xMidYMid meet" version="1.0"><defs><clipPath id="dc657765a4"><path d="M 4.621094 5 L 78 5 L 78 77.605469 L 4.621094 77.605469 Z M 4.621094 5 " clip-rule="nonzero"/></clipPath><clipPath id="3305f6262e"><path d="M 29.296875 62.515625 L 30.820312 62.515625 L 30.820312 64.035156 L 29.296875 64.035156 Z M 29.296875 62.515625 " clip-rule="nonzero"/></clipPath><clipPath id="780ca221d1"><path d="M 30.058594 62.515625 C 29.636719 62.515625 29.296875 62.855469 29.296875 63.277344 C 29.296875 63.695312 29.636719 64.035156 30.058594 64.035156 C 30.480469 64.035156 30.820312 63.695312 30.820312 63.277344 C 30.820312 62.855469 30.480469 62.515625 30.058594 62.515625 Z M 30.058594 62.515625 " clip-rule="nonzero"/></clipPath></defs><path fill="#000000" d="M 70.210938 10.367188 C 69.753906 10.824219 69.753906 11.5625 70.210938 12.015625 C 70.664062 12.472656 71.402344 12.472656 71.859375 12.015625 C 72.3125 11.5625 72.3125 10.824219 71.859375 10.367188 C 71.402344 9.914062 70.664062 9.914062 70.210938 10.367188 Z M 70.210938 10.367188 " fill-opacity="1" fill-rule="nonzero"/><g clip-path="url(#dc657765a4)"><path fill="#000000" d="M 75.296875 6.929688 C 70.679688 2.3125 63.976562 7.769531 58.027344 13.71875 C 55.09375 16.65625 52.390625 19.738281 50.21875 22.636719 C 47.792969 25.875 43.382812 26.980469 39.734375 25.265625 L 37.972656 24.4375 C 35.472656 23.261719 32.476562 23.785156 30.519531 25.742188 L 21.390625 34.871094 C 21.070312 35.191406 20.90625 35.613281 20.902344 36.035156 L 11.644531 45.292969 C 11.617188 45.300781 11.589844 45.320312 11.566406 45.332031 L 10.972656 45.925781 C 10.960938 45.953125 10.945312 45.976562 10.933594 46.003906 L 5.066406 51.867188 C 4.601562 52.335938 4.601562 53.089844 5.066406 53.554688 L 10.882812 59.371094 C 11.105469 59.59375 11.410156 59.71875 11.726562 59.71875 L 13.34375 59.71875 L 13.398438 61.425781 C 13.40625 61.730469 13.53125 62.019531 13.746094 62.234375 L 22.335938 70.824219 C 22.65625 71.144531 23.128906 71.253906 23.558594 71.113281 L 25.914062 70.328125 L 25.09375 72.613281 C 24.9375 73.050781 25.046875 73.535156 25.375 73.859375 L 28.671875 77.160156 C 29.136719 77.625 29.894531 77.625 30.359375 77.160156 L 35.429688 72.085938 L 38.007812 69.511719 L 38.976562 68.539062 L 42.015625 65.503906 L 46.195312 61.324219 C 46.617188 61.320312 47.035156 61.15625 47.355469 60.835938 L 54.644531 53.546875 L 56.488281 51.707031 C 58.441406 49.75 58.964844 46.757812 57.789062 44.253906 L 56.960938 42.492188 C 55.246094 38.84375 56.351562 34.433594 59.589844 32.007812 C 62.488281 29.835938 65.570312 27.132812 68.507812 24.199219 C 74.457031 18.25 79.914062 11.546875 75.296875 6.929688 Z M 39.480469 64.660156 C 39.382812 63.96875 39.171875 63.308594 38.851562 62.683594 C 36.867188 58.808594 30.964844 56.984375 25.257812 55.222656 C 17.714844 52.894531 12.746094 51.050781 13.140625 47.171875 L 22.234375 38.078125 L 44.148438 59.992188 Z M 46.175781 57.289062 L 24.9375 36.050781 L 30.199219 30.789062 L 51.4375 52.027344 Z M 66.144531 21.832031 C 63.316406 24.660156 60.355469 27.253906 57.585938 29.332031 C 53.082031 32.707031 51.550781 38.839844 53.933594 43.914062 L 54.761719 45.675781 C 55.339844 46.90625 55.085938 48.378906 54.121094 49.34375 L 53.125 50.339844 L 31.886719 29.101562 L 32.882812 28.105469 C 33.847656 27.144531 35.320312 26.886719 36.550781 27.464844 L 38.3125 28.292969 C 43.386719 30.679688 49.519531 29.144531 52.894531 24.644531 C 54.972656 21.871094 57.566406 18.910156 60.390625 16.082031 C 70.054688 6.417969 72.144531 8.507812 72.933594 9.292969 C 73.71875 10.082031 75.808594 12.167969 66.144531 21.832031 Z M 66.144531 21.832031 " fill-opacity="1" fill-rule="nonzero"/></g><g clip-path="url(#3305f6262e)"><g clip-path="url(#780ca221d1)"><path fill="#000000" d="M 29.296875 62.515625 L 30.820312 62.515625 L 30.820312 64.035156 L 29.296875 64.035156 Z M 29.296875 62.515625 " fill-opacity="1" fill-rule="nonzero"/></g></g></svg>