<svg xmlns="http://www.w3.org/2000/svg" xmlns:xlink="http://www.w3.org/1999/xlink" width="110" zoomAndPan="magnify" viewBox="0 0 82.5 82.499998" height="110" preserveAspectRatio="xMidYMid meet" version="1.0"><defs><clipPath id="3552e17d82"><path d="M 3.132812 3.429688 L 78.425781 3.429688 L 78.425781 78.722656 L 3.132812 78.722656 Z M 3.132812 3.429688 " clip-rule="nonzero"/></clipPath><clipPath id="ddb2702066"><path d="M 9.839844 56.847656 L 11.363281 56.847656 L 11.363281 58.371094 L 9.839844 58.371094 Z M 9.839844 56.847656 " clip-rule="nonzero"/></clipPath><clipPath id="06c1c27a4c"><path d="M 10.601562 56.847656 C 10.179688 56.847656 9.839844 57.1875 9.839844 57.609375 C 9.839844 58.03125 10.179688 58.371094 10.601562 58.371094 C 11.023438 58.371094 11.363281 58.03125 11.363281 57.609375 C 11.363281 57.1875 11.023438 56.847656 10.601562 56.847656 Z M 10.601562 56.847656 " clip-rule="nonzero"/></clipPath></defs><path stroke-linecap="round" transform="matrix(0.918215, 0, 0, 0.918215, -5.132915, -4.834722)" fill="none" stroke-linejoin="round" d="M 71.176726 49.998004 C 71.176726 61.696987 61.694168 71.179545 49.999439 71.179545 C 38.30471 71.179545 28.822152 61.696987 28.822152 49.998004 C 28.822152 38.303275 38.30471 28.824971 49.999439 28.824971 C 61.694168 28.824971 71.176726 38.303275 71.176726 49.998004 Z M 71.176726 49.998004 " stroke="#000000" stroke-width="2" stroke-opacity="1" stroke-miterlimit="10"/><g clip-path="url(#3552e17d82)"><path stroke-linecap="round" transform="matrix(0.918215, 0, 0, 0.918215, -5.132915, -4.834722)" fill="none" stroke-linejoin="round" d="M 79.808449 53.771458 L 90.001454 50.002258 L 79.808449 46.233058 C 76.166874 44.884485 75.218193 41.340756 77.698378 38.354325 L 84.645447 29.990615 L 73.929178 31.832673 C 70.10042 32.492071 67.505372 29.901278 68.16477 26.072519 L 70.006828 15.356251 L 61.647372 22.299066 C 58.660941 24.77925 55.117213 23.834823 53.768639 20.193249 L 49.999439 10.000243 L 46.230239 20.188994 C 44.881666 23.830569 41.337937 24.77925 38.351506 22.299066 L 29.99205 15.356251 L 31.834109 26.072519 C 32.493506 29.897023 29.898459 32.492071 26.073955 31.832673 L 15.357686 29.986361 L 22.300501 38.350071 C 24.780685 41.336502 23.832004 44.880231 20.190429 46.228804 L 10.001678 49.998004 L 20.190429 53.767204 C 23.832004 55.115777 24.780685 58.66376 22.300501 61.645937 L 15.353432 70.009647 L 26.073955 68.163334 C 29.898459 67.508191 32.489252 70.098984 31.834109 73.927743 L 29.99205 84.644011 L 38.351506 77.696942 C 41.337937 75.216758 44.881666 76.169693 46.230239 79.807014 L 49.999439 90.000019 L 53.768639 79.811268 C 55.112958 76.169693 58.660941 75.221012 61.647372 77.701197 L 70.006828 84.644011 L 68.16477 73.927743 C 67.505372 70.103239 70.096165 67.508191 73.924924 68.167589 L 84.636938 70.013901 L 77.698378 61.654446 C 75.218193 58.66376 76.166874 55.120032 79.808449 53.771458 Z M 49.999439 71.179545 C 38.30471 71.179545 28.822152 61.696987 28.822152 49.998004 C 28.822152 38.303275 38.30471 28.824971 49.999439 28.824971 C 61.694168 28.824971 71.176726 38.303275 71.176726 49.998004 C 71.176726 61.696987 61.694168 71.179545 49.999439 71.179545 Z M 49.999439 71.179545 " stroke="#000000" stroke-width="2" stroke-opacity="1" stroke-miterlimit="10"/></g><g clip-path="url(#ddb2702066)"><g clip-path="url(#06c1c27a4c)"><path fill="#000000" d="M 9.839844 56.847656 L 11.363281 56.847656 L 11.363281 58.371094 L 9.839844 58.371094 Z M 9.839844 56.847656 " fill-opacity="1" fill-rule="nonzero"/></g></g></svg>