<svg xmlns="http://www.w3.org/2000/svg" xmlns:xlink="http://www.w3.org/1999/xlink" width="110" zoomAndPan="magnify" viewBox="0 0 82.5 82.499998" height="110" preserveAspectRatio="xMidYMid meet" version="1.0"><defs><clipPath id="d78d57dc92"><path d="M 47 14.59375 L 67 14.59375 L 67 16 L 47 16 Z M 47 14.59375 " clip-rule="nonzero"/></clipPath><clipPath id="f00b5a3afb"><path d="M 32 14.59375 L 67 14.59375 L 67 49 L 32 49 Z M 32 14.59375 " clip-rule="nonzero"/></clipPath><clipPath id="59b75c51d2"><path d="M 15 14.59375 L 50 14.59375 L 50 49 L 15 49 Z M 15 14.59375 " clip-rule="nonzero"/></clipPath><clipPath id="164af0345d"><path d="M 65 14.59375 L 67 14.59375 L 67 21 L 65 21 Z M 65 14.59375 " clip-rule="nonzero"/></clipPath><clipPath id="ecf4e5ff2a"><path d="M 1.144531 54 L 20 54 L 20 60.8125 L 1.144531 60.8125 Z M 1.144531 54 " clip-rule="nonzero"/></clipPath><clipPath id="247c68debb"><path d="M 18 54 L 25 54 L 25 60.8125 L 18 60.8125 Z M 18 54 " clip-rule="nonzero"/></clipPath><clipPath id="c4c268e9ef"><path d="M 1.144531 22 L 35 22 L 35 56 L 1.144531 56 Z M 1.144531 22 " clip-rule="nonzero"/></clipPath><clipPath id="d34c108f6a"><path d="M 29 54 L 49 54 L 49 60.8125 L 29 60.8125 Z M 29 54 " clip-rule="nonzero"/></clipPath><clipPath id="e38a9dda24"><path d="M 65 22 L 80.910156 22 L 80.910156 24 L 65 24 Z M 65 22 " clip-rule="nonzero"/></clipPath><clipPath id="c289fddca5"><path d="M 47 22 L 80.910156 22 L 80.910156 56 L 47 56 Z M 47 22 " clip-rule="nonzero"/></clipPath><clipPath id="8c58d706d6"><path d="M 47 27 L 80.910156 27 L 80.910156 60.8125 L 47 60.8125 Z M 47 27 " clip-rule="nonzero"/></clipPath><clipPath id="771e237f3d"><path d="M 79 22 L 80.910156 22 L 80.910156 29 L 79 29 Z M 79 22 " clip-rule="nonzero"/></clipPath><clipPath id="1d69e230d2"><path d="M 46 14.59375 L 54 14.59375 L 54 23 L 46 23 Z M 46 14.59375 " clip-rule="nonzero"/></clipPath><clipPath id="b1d01f15e7"><path d="M 46 14.59375 L 60 14.59375 L 60 29 L 46 29 Z M 46 14.59375 " clip-rule="nonzero"/></clipPath><clipPath id="03ee4f841c"><path d="M 28.699219 52.109375 L 29.894531 52.109375 L 29.894531 53.300781 L 28.699219 53.300781 Z M 28.699219 52.109375 " clip-rule="nonzero"/></clipPath><clipPath id="180b2c7911"><path d="M 29.296875 52.109375 C 28.96875 52.109375 28.699219 52.375 28.699219 52.707031 C 28.699219 53.035156 28.96875 53.300781 29.296875 53.300781 C 29.625 53.300781 29.894531 53.035156 29.894531 52.707031 C 29.894531 52.375 29.625 52.109375 29.296875 52.109375 Z M 29.296875 52.109375 " clip-rule="nonzero"/></clipPath></defs><path fill="#000000" d="M 33.5625 47.09375 L 16.152344 47.09375 C 15.808594 47.09375 15.53125 47.371094 15.53125 47.714844 L 15.53125 52.707031 C 15.53125 53.050781 15.808594 53.328125 16.152344 53.328125 L 33.5625 53.328125 C 33.90625 53.328125 34.183594 53.050781 34.183594 52.707031 L 34.183594 47.714844 C 34.183594 47.371094 33.90625 47.09375 33.5625 47.09375 Z M 32.9375 52.082031 L 16.777344 52.082031 L 16.777344 48.339844 L 32.9375 48.339844 Z M 32.9375 52.082031 " fill-opacity="1" fill-rule="nonzero"/><g clip-path="url(#d78d57dc92)"><path fill="#000000" d="M 65.890625 14.65625 L 48.480469 14.65625 C 48.136719 14.65625 47.859375 14.9375 47.859375 15.28125 C 47.859375 15.625 48.136719 15.902344 48.480469 15.902344 L 65.890625 15.902344 C 66.234375 15.902344 66.511719 15.625 66.511719 15.28125 C 66.511719 14.9375 66.234375 14.65625 65.890625 14.65625 Z M 65.890625 14.65625 " fill-opacity="1" fill-rule="nonzero"/></g><g clip-path="url(#f00b5a3afb)"><path fill="#000000" d="M 66.328125 14.839844 C 66.085938 14.59375 65.691406 14.59375 65.449219 14.839844 L 33.121094 47.273438 C 32.878906 47.519531 32.878906 47.914062 33.121094 48.15625 C 33.242188 48.277344 33.402344 48.339844 33.5625 48.339844 C 33.71875 48.339844 33.878906 48.277344 34 48.15625 L 66.328125 15.722656 C 66.570312 15.476562 66.570312 15.082031 66.328125 14.839844 Z M 66.328125 14.839844 " fill-opacity="1" fill-rule="nonzero"/></g><path fill="#000000" d="M 66.328125 19.832031 C 66.085938 19.585938 65.691406 19.585938 65.449219 19.832031 L 33.121094 52.265625 C 32.878906 52.507812 32.878906 52.902344 33.121094 53.148438 C 33.242188 53.269531 33.402344 53.328125 33.5625 53.328125 C 33.71875 53.328125 33.878906 53.269531 34 53.148438 L 66.328125 20.710938 C 66.570312 20.46875 66.570312 20.074219 66.328125 19.832031 Z M 66.328125 19.832031 " fill-opacity="1" fill-rule="nonzero"/><g clip-path="url(#59b75c51d2)"><path fill="#000000" d="M 48.921875 14.839844 C 48.679688 14.59375 48.285156 14.59375 48.042969 14.839844 L 15.714844 47.273438 C 15.472656 47.519531 15.472656 47.914062 15.714844 48.15625 C 15.835938 48.277344 15.996094 48.339844 16.152344 48.339844 C 16.3125 48.339844 16.472656 48.277344 16.59375 48.15625 L 48.921875 15.722656 C 49.164062 15.476562 49.164062 15.082031 48.921875 14.839844 Z M 48.921875 14.839844 " fill-opacity="1" fill-rule="nonzero"/></g><g clip-path="url(#164af0345d)"><path fill="#000000" d="M 65.890625 14.65625 C 65.546875 14.65625 65.269531 14.933594 65.269531 15.28125 L 65.269531 20.269531 C 65.269531 20.617188 65.546875 20.894531 65.890625 20.894531 C 66.234375 20.894531 66.511719 20.617188 66.511719 20.269531 L 66.511719 15.28125 C 66.511719 14.933594 66.234375 14.65625 65.890625 14.65625 Z M 65.890625 14.65625 " fill-opacity="1" fill-rule="nonzero"/></g><path fill="#000000" d="M 43.890625 37.246094 C 43.855469 37.21875 40.613281 34.765625 36.851562 38.542969 L 28.148438 47.273438 L 29.027344 48.15625 L 37.730469 39.425781 C 40.699219 36.449219 43.035156 38.15625 43.128906 38.230469 C 43.398438 38.441406 43.789062 38.390625 44 38.121094 C 44.210938 37.847656 44.160156 37.457031 43.890625 37.246094 Z M 43.890625 37.246094 " fill-opacity="1" fill-rule="nonzero"/><path fill="#000000" d="M 37.109375 22.324219 C 36.867188 22.082031 36.472656 22.082031 36.230469 22.324219 L 32.5 26.066406 C 32.257812 26.3125 32.257812 26.707031 32.5 26.949219 C 32.621094 27.070312 32.78125 27.132812 32.9375 27.132812 C 33.097656 27.132812 33.257812 27.070312 33.378906 26.949219 L 37.109375 23.207031 C 37.351562 22.964844 37.351562 22.570312 37.109375 22.324219 Z M 37.109375 22.324219 " fill-opacity="1" fill-rule="nonzero"/><g clip-path="url(#ecf4e5ff2a)"><path fill="#000000" d="M 19.261719 54.578125 L 1.855469 54.578125 C 1.511719 54.578125 1.234375 54.859375 1.234375 55.203125 L 1.234375 60.191406 C 1.234375 60.539062 1.511719 60.816406 1.855469 60.816406 L 19.261719 60.816406 C 19.605469 60.816406 19.882812 60.539062 19.882812 60.191406 L 19.882812 55.203125 C 19.882812 54.859375 19.605469 54.578125 19.261719 54.578125 Z M 18.640625 59.566406 L 2.476562 59.566406 L 2.476562 55.824219 L 18.640625 55.824219 Z M 18.640625 59.566406 " fill-opacity="1" fill-rule="nonzero"/></g><path fill="#000000" d="M 38.539062 22.140625 L 34.183594 22.140625 C 33.839844 22.140625 33.5625 22.417969 33.5625 22.761719 C 33.5625 23.109375 33.839844 23.386719 34.183594 23.386719 L 38.539062 23.386719 C 38.882812 23.386719 39.160156 23.109375 39.160156 22.761719 C 39.160156 22.417969 38.882812 22.140625 38.539062 22.140625 Z M 38.539062 22.140625 " fill-opacity="1" fill-rule="nonzero"/><g clip-path="url(#247c68debb)"><path fill="#000000" d="M 24.636719 54.800781 C 24.394531 54.554688 24 54.554688 23.757812 54.800781 L 18.824219 59.75 C 18.578125 59.996094 18.578125 60.386719 18.824219 60.632812 C 18.945312 60.753906 19.101562 60.816406 19.261719 60.816406 C 19.421875 60.816406 19.582031 60.753906 19.703125 60.632812 L 24.636719 55.679688 C 24.878906 55.4375 24.878906 55.042969 24.636719 54.800781 Z M 24.636719 54.800781 " fill-opacity="1" fill-rule="nonzero"/></g><g clip-path="url(#c4c268e9ef)"><path fill="#000000" d="M 34.621094 22.324219 C 34.378906 22.082031 33.988281 22.082031 33.742188 22.324219 L 1.414062 54.761719 C 1.171875 55.003906 1.171875 55.398438 1.414062 55.640625 C 1.535156 55.765625 1.695312 55.824219 1.855469 55.824219 C 2.011719 55.824219 2.171875 55.765625 2.292969 55.640625 L 34.621094 23.207031 C 34.867188 22.960938 34.867188 22.566406 34.621094 22.324219 Z M 34.621094 22.324219 " fill-opacity="1" fill-rule="nonzero"/></g><g clip-path="url(#d34c108f6a)"><path fill="#000000" d="M 47.859375 54.578125 L 30.453125 54.578125 C 30.109375 54.578125 29.832031 54.859375 29.832031 55.203125 L 29.832031 60.191406 C 29.832031 60.539062 30.109375 60.816406 30.453125 60.816406 L 47.859375 60.816406 C 48.203125 60.816406 48.480469 60.539062 48.480469 60.191406 L 48.480469 55.203125 C 48.480469 54.859375 48.203125 54.578125 47.859375 54.578125 Z M 47.238281 59.566406 L 31.074219 59.566406 L 31.074219 55.824219 L 47.238281 55.824219 Z M 47.238281 59.566406 " fill-opacity="1" fill-rule="nonzero"/></g><g clip-path="url(#e38a9dda24)"><path fill="#000000" d="M 80.1875 22.140625 L 65.894531 22.140625 C 65.550781 22.140625 65.273438 22.421875 65.273438 22.765625 C 65.273438 23.109375 65.550781 23.390625 65.894531 23.390625 L 80.1875 23.390625 C 80.53125 23.390625 80.8125 23.109375 80.8125 22.765625 C 80.8125 22.421875 80.53125 22.140625 80.1875 22.140625 Z M 80.1875 22.140625 " fill-opacity="1" fill-rule="nonzero"/></g><g clip-path="url(#c289fddca5)"><path fill="#000000" d="M 80.628906 22.324219 C 80.386719 22.082031 79.992188 22.082031 79.75 22.324219 L 47.421875 54.761719 C 47.179688 55.003906 47.179688 55.398438 47.421875 55.640625 C 47.542969 55.765625 47.703125 55.824219 47.859375 55.824219 C 48.019531 55.824219 48.179688 55.765625 48.300781 55.640625 L 80.628906 23.207031 C 80.871094 22.960938 80.871094 22.566406 80.628906 22.324219 Z M 80.628906 22.324219 " fill-opacity="1" fill-rule="nonzero"/></g><g clip-path="url(#8c58d706d6)"><path fill="#000000" d="M 80.628906 27.316406 C 80.386719 27.070312 79.992188 27.070312 79.75 27.316406 L 47.421875 59.75 C 47.179688 59.996094 47.179688 60.386719 47.421875 60.632812 C 47.542969 60.753906 47.703125 60.816406 47.859375 60.816406 C 48.019531 60.816406 48.179688 60.753906 48.300781 60.632812 L 80.628906 28.199219 C 80.871094 27.953125 80.871094 27.558594 80.628906 27.316406 Z M 80.628906 27.316406 " fill-opacity="1" fill-rule="nonzero"/></g><g clip-path="url(#771e237f3d)"><path fill="#000000" d="M 80.1875 22.140625 C 79.84375 22.140625 79.566406 22.421875 79.566406 22.765625 L 79.566406 27.757812 C 79.566406 28.101562 79.84375 28.378906 80.1875 28.378906 C 80.53125 28.378906 80.8125 28.101562 80.8125 27.757812 L 80.8125 22.765625 C 80.8125 22.421875 80.53125 22.140625 80.1875 22.140625 Z M 80.1875 22.140625 " fill-opacity="1" fill-rule="nonzero"/></g><path fill="#000000" d="M 42.082031 49.769531 C 41.839844 49.527344 41.445312 49.527344 41.203125 49.769531 L 36.230469 54.761719 C 35.988281 55.003906 35.988281 55.398438 36.230469 55.640625 C 36.351562 55.765625 36.511719 55.824219 36.667969 55.824219 C 36.828125 55.824219 36.988281 55.765625 37.109375 55.640625 L 42.082031 50.652344 C 42.324219 50.410156 42.324219 50.015625 42.082031 49.769531 Z M 42.082031 49.769531 " fill-opacity="1" fill-rule="nonzero"/><path fill="#000000" d="M 52.03125 46.027344 C 51.789062 45.785156 51.394531 45.785156 51.152344 46.027344 L 42.449219 54.757812 C 42.203125 55 42.203125 55.394531 42.449219 55.640625 C 42.566406 55.761719 42.726562 55.824219 42.886719 55.824219 C 43.046875 55.824219 43.203125 55.761719 43.328125 55.640625 L 52.03125 46.910156 C 52.273438 46.667969 52.273438 46.269531 52.03125 46.027344 Z M 52.03125 46.027344 " fill-opacity="1" fill-rule="nonzero"/><path fill="#000000" d="M 68.144531 22.378906 C 67.902344 22.132812 67.507812 22.132812 67.265625 22.378906 L 61.953125 27.703125 L 62.832031 28.585938 L 68.144531 23.261719 C 68.386719 23.015625 68.386719 22.621094 68.144531 22.378906 Z M 68.144531 22.378906 " fill-opacity="1" fill-rule="nonzero"/><g clip-path="url(#1d69e230d2)"><path fill="#000000" d="M 53.277344 14.839844 C 53.03125 14.59375 52.640625 14.59375 52.398438 14.839844 L 46.179688 21.078125 C 45.9375 21.324219 45.9375 21.71875 46.179688 21.960938 C 46.300781 22.082031 46.460938 22.144531 46.617188 22.144531 C 46.777344 22.144531 46.9375 22.082031 47.058594 21.960938 L 53.277344 15.722656 C 53.519531 15.476562 53.519531 15.082031 53.277344 14.839844 Z M 53.277344 14.839844 " fill-opacity="1" fill-rule="nonzero"/></g><g clip-path="url(#b1d01f15e7)"><path fill="#000000" d="M 59.492188 14.839844 C 59.246094 14.59375 58.855469 14.59375 58.613281 14.839844 L 46.179688 27.3125 C 45.9375 27.554688 45.9375 27.953125 46.179688 28.195312 C 46.300781 28.316406 46.460938 28.378906 46.617188 28.378906 C 46.777344 28.378906 46.9375 28.316406 47.058594 28.195312 L 59.492188 15.722656 C 59.734375 15.476562 59.734375 15.082031 59.492188 14.839844 Z M 59.492188 14.839844 " fill-opacity="1" fill-rule="nonzero"/></g><g clip-path="url(#03ee4f841c)"><g clip-path="url(#180b2c7911)"><path fill="#000000" d="M 28.699219 52.109375 L 29.894531 52.109375 L 29.894531 53.300781 L 28.699219 53.300781 Z M 28.699219 52.109375 " fill-opacity="1" fill-rule="nonzero"/></g></g></svg>