<svg xmlns="http://www.w3.org/2000/svg" xmlns:xlink="http://www.w3.org/1999/xlink" width="91" zoomAndPan="magnify" viewBox="0 0 68.25 80.999996" height="108" preserveAspectRatio="xMidYMid meet" version="1.0"><defs><clipPath id="06460c6abb"><path d="M 2.304688 14.832031 L 66.101562 14.832031 L 66.101562 66 L 2.304688 66 Z M 2.304688 14.832031 " clip-rule="nonzero"/></clipPath><clipPath id="626acbba3c"><path d="M 20.253906 51.3125 L 21.734375 51.3125 L 21.734375 52.796875 L 20.253906 52.796875 Z M 20.253906 51.3125 " clip-rule="nonzero"/></clipPath></defs><g clip-path="url(#06460c6abb)"><path fill="#000000" d="M 62.847656 36.117188 L 61.785156 36.117188 L 61.785156 18.023438 C 61.785156 17.601562 61.707031 17.195312 61.542969 16.804688 C 61.382812 16.414062 61.152344 16.066406 60.855469 15.769531 C 60.554688 15.46875 60.210938 15.238281 59.820312 15.074219 C 59.433594 14.914062 59.027344 14.832031 58.605469 14.832031 L 52.238281 14.832031 C 51.816406 14.832031 51.410156 14.914062 51.019531 15.074219 C 50.628906 15.238281 50.285156 15.46875 49.988281 15.769531 C 49.6875 16.066406 49.460938 16.414062 49.296875 16.804688 C 49.136719 17.195312 49.054688 17.601562 49.054688 18.023438 L 49.054688 19.183594 C 48.316406 19.3125 47.617188 19.5625 46.964844 19.933594 C 46.3125 20.308594 45.742188 20.78125 45.257812 21.359375 C 44.773438 21.933594 44.402344 22.574219 44.140625 23.28125 C 43.882812 23.992188 43.753906 24.722656 43.75 25.476562 L 43.75 26.539062 C 43.75 26.679688 43.777344 26.816406 43.832031 26.945312 C 43.886719 27.078125 43.960938 27.191406 44.0625 27.292969 C 44.160156 27.390625 44.277344 27.46875 44.40625 27.523438 C 44.535156 27.574219 44.671875 27.601562 44.8125 27.601562 L 55.421875 27.601562 C 55.5625 27.601562 55.695312 27.574219 55.828125 27.523438 C 55.957031 27.46875 56.070312 27.390625 56.171875 27.292969 C 56.269531 27.191406 56.347656 27.078125 56.402344 26.945312 C 56.453125 26.816406 56.480469 26.679688 56.480469 26.539062 L 56.480469 25.476562 C 56.480469 24.722656 56.351562 23.992188 56.089844 23.28125 C 55.832031 22.574219 55.460938 21.933594 54.972656 21.359375 C 54.488281 20.78125 53.921875 20.308594 53.269531 19.933594 C 52.613281 19.5625 51.917969 19.3125 51.175781 19.183594 L 51.175781 18.023438 C 51.175781 17.882812 51.203125 17.75 51.257812 17.617188 C 51.3125 17.488281 51.386719 17.371094 51.488281 17.273438 C 51.585938 17.171875 51.703125 17.097656 51.832031 17.042969 C 51.960938 16.988281 52.097656 16.960938 52.238281 16.960938 L 58.605469 16.960938 C 58.746094 16.960938 58.878906 16.988281 59.007812 17.042969 C 59.140625 17.097656 59.253906 17.171875 59.355469 17.273438 C 59.453125 17.371094 59.53125 17.488281 59.582031 17.617188 C 59.636719 17.75 59.664062 17.882812 59.664062 18.023438 L 59.664062 36.117188 L 27.640625 36.117188 C 27.53125 35.804688 27.378906 35.519531 27.183594 35.257812 C 26.984375 34.996094 26.75 34.769531 26.484375 34.578125 C 26.21875 34.386719 25.925781 34.242188 25.613281 34.140625 C 25.300781 34.039062 24.984375 33.988281 24.65625 33.988281 L 16.167969 33.988281 C 15.839844 33.988281 15.519531 34.039062 15.207031 34.140625 C 14.894531 34.242188 14.605469 34.386719 14.335938 34.578125 C 14.070312 34.769531 13.835938 34.996094 13.640625 35.257812 C 13.441406 35.519531 13.289062 35.804688 13.179688 36.117188 L 5.558594 36.117188 C 5.136719 36.117188 4.730469 36.203125 4.34375 36.363281 C 3.953125 36.527344 3.609375 36.757812 3.3125 37.058594 C 3.015625 37.355469 2.785156 37.699219 2.621094 38.089844 C 2.460938 38.480469 2.378906 38.886719 2.375 39.308594 C 2.375 39.636719 2.425781 39.960938 2.527344 40.273438 C 2.628906 40.585938 2.773438 40.875 2.964844 41.144531 C 3.152344 41.414062 3.378906 41.644531 3.640625 41.84375 C 3.902344 42.042969 4.1875 42.195312 4.496094 42.304688 L 4.496094 52.078125 C 4.5 53.144531 4.640625 54.1875 4.925781 55.214844 C 5.210938 56.238281 5.628906 57.207031 6.175781 58.117188 C 6.726562 59.03125 7.382812 59.851562 8.15625 60.582031 C 8.925781 61.3125 9.78125 61.925781 10.71875 62.425781 L 9.050781 64.097656 C 8.949219 64.195312 8.871094 64.3125 8.8125 64.441406 C 8.757812 64.574219 8.730469 64.710938 8.726562 64.851562 C 8.726562 64.996094 8.753906 65.132812 8.808594 65.265625 C 8.859375 65.398438 8.9375 65.515625 9.039062 65.613281 C 9.140625 65.714844 9.253906 65.792969 9.386719 65.847656 C 9.519531 65.902344 9.65625 65.929688 9.796875 65.925781 C 9.941406 65.925781 10.078125 65.898438 10.207031 65.839844 C 10.339844 65.785156 10.453125 65.703125 10.550781 65.601562 L 12.449219 63.699219 C 12.570312 63.574219 12.652344 63.425781 12.699219 63.257812 C 13.828125 63.609375 14.984375 63.785156 16.167969 63.785156 L 52.238281 63.785156 C 53.386719 63.785156 54.507812 63.617188 55.605469 63.285156 C 55.640625 63.351562 55.683594 63.414062 55.730469 63.472656 L 57.839844 65.589844 C 57.941406 65.683594 58.054688 65.757812 58.183594 65.8125 C 58.3125 65.863281 58.445312 65.886719 58.585938 65.886719 C 58.726562 65.886719 58.859375 65.859375 58.988281 65.804688 C 59.117188 65.75 59.230469 65.675781 59.328125 65.574219 C 59.425781 65.476562 59.5 65.363281 59.554688 65.234375 C 59.609375 65.105469 59.636719 64.972656 59.636719 64.832031 C 59.640625 64.691406 59.613281 64.558594 59.5625 64.429688 C 59.511719 64.296875 59.4375 64.183594 59.339844 64.082031 L 57.6875 62.425781 C 58.625 61.925781 59.480469 61.3125 60.25 60.582031 C 61.023438 59.851562 61.679688 59.03125 62.230469 58.117188 C 62.777344 57.207031 63.195312 56.238281 63.480469 55.214844 C 63.765625 54.1875 63.90625 53.144531 63.910156 52.078125 L 63.910156 42.308594 C 64.355469 42.15625 64.75 41.910156 65.082031 41.570312 C 65.71875 40.953125 66.035156 40.199219 66.03125 39.308594 C 66.03125 38.886719 65.949219 38.480469 65.789062 38.085938 C 65.625 37.695312 65.394531 37.351562 65.097656 37.050781 C 64.800781 36.753906 64.457031 36.523438 64.066406 36.359375 C 63.675781 36.199219 63.269531 36.117188 62.847656 36.117188 Z M 54.359375 25.476562 L 45.871094 25.476562 C 45.871094 25.195312 45.898438 24.917969 45.953125 24.644531 C 46.007812 24.371094 46.089844 24.105469 46.195312 23.84375 C 46.300781 23.585938 46.433594 23.34375 46.589844 23.109375 C 46.742188 22.878906 46.917969 22.664062 47.117188 22.464844 C 47.3125 22.265625 47.527344 22.089844 47.757812 21.933594 C 47.992188 21.78125 48.234375 21.648438 48.492188 21.542969 C 48.75 21.433594 49.015625 21.355469 49.289062 21.300781 C 49.5625 21.246094 49.835938 21.21875 50.117188 21.21875 C 50.394531 21.21875 50.671875 21.246094 50.945312 21.300781 C 51.21875 21.355469 51.484375 21.433594 51.742188 21.542969 C 51.996094 21.648438 52.242188 21.78125 52.472656 21.933594 C 52.707031 22.089844 52.921875 22.265625 53.117188 22.464844 C 53.3125 22.664062 53.488281 22.878906 53.644531 23.109375 C 53.800781 23.34375 53.929688 23.585938 54.035156 23.84375 C 54.144531 24.105469 54.222656 24.371094 54.277344 24.644531 C 54.332031 24.917969 54.359375 25.195312 54.359375 25.476562 Z M 15.105469 37.179688 C 15.105469 37.039062 15.132812 36.902344 15.1875 36.773438 C 15.242188 36.644531 15.316406 36.527344 15.417969 36.429688 C 15.515625 36.328125 15.632812 36.25 15.761719 36.199219 C 15.890625 36.144531 16.027344 36.117188 16.167969 36.117188 L 24.65625 36.117188 C 24.796875 36.117188 24.929688 36.144531 25.0625 36.199219 C 25.191406 36.25 25.304688 36.328125 25.40625 36.429688 C 25.503906 36.527344 25.582031 36.644531 25.632812 36.773438 C 25.6875 36.902344 25.714844 37.039062 25.714844 37.179688 L 25.714844 46.757812 L 15.105469 46.757812 Z M 15.105469 48.886719 L 25.714844 48.886719 L 25.714844 51.015625 L 15.105469 51.015625 Z M 4.496094 39.308594 C 4.496094 39.007812 4.605469 38.757812 4.820312 38.550781 C 5.023438 38.34375 5.269531 38.242188 5.558594 38.246094 L 12.984375 38.246094 L 12.984375 40.375 L 5.558594 40.375 C 5.417969 40.375 5.28125 40.347656 5.152344 40.292969 C 5.023438 40.238281 4.90625 40.160156 4.808594 40.0625 C 4.707031 39.960938 4.632812 39.847656 4.578125 39.714844 C 4.523438 39.585938 4.496094 39.449219 4.496094 39.308594 Z M 61.785156 52.078125 C 61.785156 52.707031 61.722656 53.332031 61.601562 53.945312 C 61.476562 54.5625 61.296875 55.164062 61.058594 55.742188 C 60.816406 56.324219 60.523438 56.875 60.175781 57.398438 C 59.824219 57.921875 59.429688 58.402344 58.988281 58.847656 C 58.542969 59.292969 58.0625 59.691406 57.539062 60.039062 C 57.019531 60.390625 56.46875 60.683594 55.890625 60.925781 C 55.3125 61.167969 54.714844 61.347656 54.101562 61.472656 C 53.484375 61.59375 52.863281 61.65625 52.238281 61.65625 L 16.167969 61.65625 C 15.539062 61.65625 14.917969 61.59375 14.304688 61.472656 C 13.691406 61.347656 13.09375 61.167969 12.515625 60.925781 C 11.9375 60.683594 11.386719 60.390625 10.863281 60.039062 C 10.34375 59.691406 9.863281 59.292969 9.417969 58.847656 C 8.976562 58.402344 8.578125 57.921875 8.230469 57.398438 C 7.882812 56.875 7.589844 56.324219 7.347656 55.742188 C 7.109375 55.164062 6.925781 54.5625 6.804688 53.945312 C 6.679688 53.332031 6.621094 52.707031 6.617188 52.078125 L 6.617188 42.5 L 12.984375 42.5 L 12.984375 52.078125 C 12.984375 52.21875 13.011719 52.355469 13.066406 52.488281 C 13.121094 52.617188 13.195312 52.730469 13.296875 52.832031 C 13.394531 52.933594 13.507812 53.007812 13.640625 53.0625 C 13.769531 53.117188 13.90625 53.144531 14.046875 53.144531 L 26.777344 53.144531 C 26.917969 53.144531 27.050781 53.117188 27.183594 53.0625 C 27.3125 53.007812 27.425781 52.933594 27.527344 52.832031 C 27.625 52.730469 27.703125 52.617188 27.757812 52.488281 C 27.808594 52.355469 27.835938 52.21875 27.835938 52.078125 L 27.835938 42.5 L 61.785156 42.5 Z M 63.582031 40.066406 C 63.382812 40.273438 63.136719 40.375 62.847656 40.375 L 27.835938 40.375 L 27.835938 38.246094 L 62.847656 38.246094 C 62.988281 38.246094 63.125 38.273438 63.253906 38.324219 C 63.382812 38.378906 63.5 38.457031 63.597656 38.558594 C 63.695312 38.65625 63.773438 38.773438 63.828125 38.902344 C 63.882812 39.03125 63.910156 39.167969 63.910156 39.308594 C 63.910156 39.609375 63.800781 39.859375 63.582031 40.066406 Z M 63.582031 40.066406 " fill-opacity="1" fill-rule="nonzero"/></g><g clip-path="url(#626acbba3c)"><path fill="#000000" d="M 21.664062 51.726562 C 21.652344 51.710938 21.628906 51.710938 21.613281 51.726562 L 21.566406 51.671875 C 21.558594 51.660156 21.550781 51.644531 21.546875 51.628906 L 21.535156 51.570312 C 21.53125 51.546875 21.523438 51.527344 21.507812 51.511719 L 21.429688 51.421875 C 21.386719 51.375 21.335938 51.34375 21.28125 51.332031 C 21.183594 51.3125 21.074219 51.324219 20.941406 51.367188 C 20.921875 51.375 20.910156 51.394531 20.914062 51.417969 C 20.914062 51.4375 20.929688 51.457031 20.949219 51.457031 C 21.050781 51.46875 21.125 51.484375 21.179688 51.515625 C 21.1875 51.519531 21.195312 51.527344 21.195312 51.539062 C 21.195312 51.546875 21.195312 51.558594 21.1875 51.5625 L 21.113281 51.648438 C 21.109375 51.652344 21.105469 51.65625 21.105469 51.660156 C 21.105469 51.667969 21.109375 51.671875 21.113281 51.675781 L 21.117188 51.683594 L 20.566406 52.304688 L 20.476562 52.371094 C 20.476562 52.371094 20.472656 52.375 20.472656 52.375 L 20.28125 52.59375 C 20.253906 52.621094 20.257812 52.667969 20.28125 52.695312 L 20.351562 52.773438 C 20.363281 52.789062 20.382812 52.796875 20.398438 52.796875 C 20.414062 52.796875 20.429688 52.789062 20.441406 52.777344 L 20.636719 52.558594 C 20.636719 52.558594 20.636719 52.554688 20.636719 52.554688 L 20.699219 52.449219 L 21.246094 51.832031 L 21.253906 51.839844 C 21.261719 51.847656 21.273438 51.847656 21.28125 51.839844 L 21.320312 51.796875 C 21.335938 51.777344 21.359375 51.769531 21.382812 51.773438 L 21.414062 51.78125 C 21.429688 51.785156 21.441406 51.792969 21.449219 51.800781 L 21.5 51.855469 C 21.484375 51.871094 21.484375 51.898438 21.5 51.914062 L 21.554688 51.972656 C 21.5625 51.984375 21.570312 51.988281 21.582031 51.988281 C 21.589844 51.988281 21.597656 51.980469 21.605469 51.972656 L 21.71875 51.847656 C 21.734375 51.832031 21.734375 51.804688 21.71875 51.789062 Z M 20.609375 52.53125 L 20.417969 52.746094 C 20.40625 52.757812 20.386719 52.757812 20.375 52.746094 L 20.308594 52.667969 C 20.296875 52.652344 20.296875 52.632812 20.304688 52.621094 L 20.496094 52.40625 L 20.578125 52.347656 L 20.660156 52.441406 Z M 20.683594 52.410156 L 20.605469 52.320312 L 21.144531 51.714844 L 21.222656 51.800781 Z M 21.476562 51.773438 C 21.460938 51.753906 21.441406 51.746094 21.421875 51.738281 L 21.390625 51.734375 C 21.355469 51.726562 21.320312 51.738281 21.292969 51.765625 L 21.269531 51.792969 L 21.152344 51.664062 L 21.210938 51.59375 C 21.226562 51.578125 21.234375 51.554688 21.230469 51.53125 C 21.226562 51.507812 21.214844 51.488281 21.195312 51.480469 C 21.136719 51.445312 21.058594 51.425781 20.953125 51.417969 C 20.949219 51.417969 20.949219 51.417969 20.949219 51.414062 C 20.949219 51.410156 20.949219 51.410156 20.953125 51.40625 C 21.078125 51.367188 21.183594 51.355469 21.273438 51.375 C 21.324219 51.382812 21.367188 51.410156 21.40625 51.453125 L 21.480469 51.539062 C 21.492188 51.550781 21.5 51.566406 21.5 51.582031 L 21.511719 51.636719 C 21.515625 51.664062 21.527344 51.683594 21.539062 51.699219 L 21.589844 51.753906 L 21.558594 51.792969 L 21.523438 51.828125 Z M 21.582031 51.945312 L 21.527344 51.882812 L 21.582031 51.820312 L 21.628906 51.769531 L 21.640625 51.757812 L 21.695312 51.816406 Z M 21.582031 51.945312 " fill-opacity="1" fill-rule="nonzero"/></g></svg>